<!-- Generator: Adobe Illustrator 18.1.1, SVG Export Plug-In  -->
<svg version="1.1"
   xmlns="http://www.w3.org/2000/svg" xmlns:xlink="http://www.w3.org/1999/xlink" xmlns:a="http://ns.adobe.com/AdobeSVGViewerExtensions/3.0/"
   x="0px" y="0px" width="1267.666px" height="521.232px" viewBox="0 0 1267.666 521.232"
   enable-background="new 0 0 1267.666 521.232" xml:space="preserve">
<defs>
</defs>
<g>
  <g>
    <defs>
      <rect id="SVGID_1_" x="312.526" y="2.132" width="259.2" height="517.658"/>
    </defs>
    <clipPath id="SVGID_2_">
      <use xlink:href="#SVGID_1_"  overflow="visible"/>
    </clipPath>
    <rect x="303.636" y="0" clip-path="url(#SVGID_2_)" fill="#47D2FC" width="272.903" height="462.716"/>
    <path clip-path="url(#SVGID_2_)" fill="#1C7F0A" d="M1256.472,490.55c0,0-59.733-78.129-188.268-146.122
      c-61.923-32.756-185.724-13.217-227.702,11.184c-41.979,24.401-180.635-22.367-225.158-40.668
      c-44.523-18.301-128.48,45.751-186.996,38.634c-58.516-7.117-76.579-51.851-146.543-18.301s-100.278,106.131-131.278,101.67V507.1
      l1117.14,6.1L1256.472,490.55z"/>
    <path clip-path="url(#SVGID_2_)" fill="#359700" d="M1067.526,430.222c-135-12.083-173.432-126.97-313.982-107.652
      s-145.492,52.868-263.043,9.15s-118.744,37.838-191.575,64.272s-93.828,106.465-93.828,106.465h862.428V430.222z"/>
    <path clip-path="url(#SVGID_2_)" fill="#8EDD20" d="M1127.6,431.171c-39.56-20.195-77.352-84.495-189.148-47.092
      c-164.098,54.902-230.371-10.741-295.122-10.741c-66.148,0-183.087,63.399-284.946,48.359
      c-57.612-8.507-152.65-32.534-192.084-12.2s-82.685,67.102-162.826,76.76s1252.998,0,1252.998,0S1185.016,460.481,1127.6,431.171z
      "/>
    <g clip-path="url(#SVGID_2_)">
      <path fill="#D2EDF9" d="M551.099,38.518c-0.027,0-0.053,0.003-0.08,0.004c-0.592-4.876-4.738-8.656-9.774-8.656
        c-5.442,0-9.853,4.411-9.853,9.853c0,0.055,0.007,0.108,0.008,0.162c-0.39-0.096-0.79-0.162-1.21-0.162
        c-2.575,0-4.676,1.936-4.985,4.428c-0.622-0.218-1.289-0.343-1.985-0.343c-3.318,0-6.008,2.69-6.008,6.009
        c0,3.318,2.69,6.008,6.008,6.008h27.879c4.778,0,8.652-3.873,8.652-8.652C559.751,42.391,555.878,38.518,551.099,38.518z"/>
      <path fill="#FBFAF0" d="M521.521,52.3c0.697,0,1.363,0.125,1.985,0.343c0.309-2.492,2.41-4.428,4.985-4.428
        c0.42,0,0.821,0.066,1.21,0.162c-0.001-0.054-0.008-0.107-0.008-0.162c0-5.442,4.412-9.853,9.854-9.853
        c5.036,0,9.182,3.78,9.773,8.656c0.027-0.001,0.053-0.004,0.08-0.004c3.805,0,7.034,2.457,8.192,5.87
        c1.343-1.525,2.159-3.524,2.159-5.715c0-4.778-3.873-8.651-8.652-8.651c-0.027,0-0.053,0.003-0.08,0.004
        c-0.592-4.876-4.738-8.656-9.774-8.656c-5.442,0-9.853,4.411-9.853,9.853c0,0.055,0.007,0.108,0.008,0.162
        c-0.39-0.096-0.79-0.162-1.21-0.162c-2.575,0-4.676,1.936-4.985,4.428c-0.622-0.218-1.289-0.343-1.985-0.343
        c-3.318,0-6.008,2.69-6.008,6.009c0,1.278,0.402,2.46,1.082,3.434C519.227,52.651,520.332,52.3,521.521,52.3z"/>
    </g>
    <g clip-path="url(#SVGID_2_)">
      <path fill="#D2EDF9" d="M398.075,179.911c-0.043,0-0.084,0.006-0.127,0.006c-0.939-7.732-7.514-13.727-15.499-13.727
        c-8.63,0-15.626,6.996-15.626,15.626c0,0.087,0.012,0.171,0.014,0.258c-0.618-0.152-1.253-0.258-1.919-0.258
        c-4.084,0-7.415,3.07-7.905,7.023c-0.985-0.345-2.043-0.543-3.148-0.543c-5.263,0-9.528,4.266-9.528,9.528
        s4.266,9.528,9.528,9.528h44.211c7.578,0,13.72-6.143,13.72-13.721C411.796,186.053,405.653,179.911,398.075,179.911z"/>
      <path fill="#FBFAF0" d="M351.169,201.769c1.105,0,2.162,0.199,3.147,0.544c0.49-3.952,3.822-7.023,7.905-7.023
        c0.666,0,1.302,0.105,1.919,0.258c-0.001-0.086-0.014-0.17-0.014-0.258c0-8.63,6.996-15.626,15.627-15.626
        c7.986,0,14.561,5.995,15.499,13.727c0.043-0.001,0.084-0.006,0.127-0.006c6.035,0,11.155,3.897,12.991,9.309
        c2.13-2.417,3.424-5.587,3.424-9.063c0-7.578-6.143-13.72-13.72-13.72c-0.043,0-0.084,0.006-0.127,0.006
        c-0.939-7.732-7.514-13.727-15.499-13.727c-8.63,0-15.626,6.996-15.626,15.626c0,0.087,0.012,0.171,0.014,0.258
        c-0.618-0.152-1.253-0.258-1.919-0.258c-4.084,0-7.415,3.07-7.905,7.023c-0.985-0.345-2.043-0.543-3.148-0.543
        c-5.263,0-9.528,4.266-9.528,9.528c0,2.026,0.637,3.901,1.716,5.445C347.53,202.324,349.284,201.769,351.169,201.769z"/>
    </g>
    <g clip-path="url(#SVGID_2_)">
      <rect x="312.86" y="464.124" fill="#6E7376" width="258.958" height="57.107"/>
      <g>
        
          <line fill="none" stroke="#FAAF3B" stroke-width="2" stroke-miterlimit="10" x1="312.86" y1="467.841" x2="571.818" y2="467.841"/>
        
          <line fill="none" stroke="#FAAF3B" stroke-width="2" stroke-miterlimit="10" x1="312.86" y1="517.515" x2="571.818" y2="517.515"/>
      </g>
      
        <line fill="none" stroke="#F1F1F1" stroke-width="2" stroke-miterlimit="10" stroke-dasharray="10" x1="312.86" y1="490.678" x2="571.818" y2="490.678"/>
    </g>
    <g clip-path="url(#SVGID_2_)">
      <path fill="#414042" d="M333.897,475.249c0,0.247,0.201,0.448,0.448,0.448h267.352c0.247,0,0.448-0.201,0.448-0.448l0,0
        c0-0.247-0.201-0.448-0.448-0.448H334.345C334.098,474.801,333.897,475.002,333.897,475.249L333.897,475.249z"/>
      <g>
        <g>
          <path fill="#414042" d="M381.73,482.356c10.678,0,19.366-8.688,19.366-19.366s-8.688-19.366-19.366-19.366
            s-19.366,8.688-19.366,19.366S371.052,482.356,381.73,482.356z"/>
          <path fill="#231F20" d="M381.73,445.422c9.687,0,17.567,7.881,17.567,17.567s-7.881,17.568-17.567,17.568
            s-17.568-7.881-17.568-17.568S372.043,445.422,381.73,445.422 M381.73,441.825c-11.689,0-21.165,9.476-21.165,21.165
            s9.476,21.165,21.165,21.165c11.689,0,21.165-9.476,21.165-21.165S393.419,441.825,381.73,441.825L381.73,441.825z"/>
        </g>
        <g>
          <path fill="#414042" d="M423.884,482.356c10.678,0,19.366-8.688,19.366-19.366s-8.688-19.366-19.366-19.366
            c-10.679,0-19.366,8.688-19.366,19.366S413.206,482.356,423.884,482.356z"/>
          <path fill="#231F20" d="M423.884,445.422c9.687,0,17.567,7.881,17.567,17.567s-7.881,17.568-17.567,17.568
            c-9.687,0-17.568-7.881-17.568-17.568S414.197,445.422,423.884,445.422 M423.884,441.825c-11.689,0-21.165,9.476-21.165,21.165
            s9.476,21.165,21.165,21.165c11.689,0,21.165-9.476,21.165-21.165S435.573,441.825,423.884,441.825L423.884,441.825z"/>
        </g>
        <g>
          <path fill="#414042" d="M466.038,482.356c10.679,0,19.366-8.688,19.366-19.366s-8.688-19.366-19.366-19.366
            s-19.366,8.688-19.366,19.366S455.36,482.356,466.038,482.356z"/>
          <path fill="#231F20" d="M466.038,445.422c9.687,0,17.568,7.881,17.568,17.567s-7.881,17.568-17.568,17.568
            c-9.687,0-17.567-7.881-17.567-17.568S456.351,445.422,466.038,445.422 M466.038,441.825c-11.689,0-21.165,9.476-21.165,21.165
            s9.476,21.165,21.165,21.165c11.689,0,21.165-9.476,21.165-21.165S477.727,441.825,466.038,441.825L466.038,441.825z"/>
        </g>
      </g>
      <g>
        <g>
          <path fill="#414042" d="M543.927,482.812c10.679,0,19.366-8.688,19.366-19.366c0-10.678-8.688-19.366-19.366-19.366
            c-10.678,0-19.366,8.688-19.366,19.366C524.561,474.125,533.248,482.812,543.927,482.812z"/>
          <path fill="#231F20" d="M543.927,445.879c9.687,0,17.568,7.881,17.568,17.567c0,9.687-7.881,17.568-17.568,17.568
            c-9.687,0-17.567-7.881-17.567-17.568C526.359,453.759,534.24,445.879,543.927,445.879 M543.927,442.282
            c-11.689,0-21.165,9.476-21.165,21.165s9.476,21.165,21.165,21.165c11.689,0,21.165-9.476,21.165-21.165
            S555.616,442.282,543.927,442.282L543.927,442.282z"/>
        </g>
        <g>
          <path fill="#414042" d="M586.081,482.812c10.679,0,19.366-8.688,19.366-19.366c0-10.678-8.688-19.366-19.366-19.366
            c-10.678,0-19.366,8.688-19.366,19.366C566.715,474.125,575.402,482.812,586.081,482.812z"/>
          <path fill="#231F20" d="M586.081,445.879c9.687,0,17.568,7.881,17.568,17.567c0,9.687-7.881,17.568-17.568,17.568
            c-9.687,0-17.567-7.881-17.567-17.568C568.513,453.759,576.394,445.879,586.081,445.879 M586.081,442.282
            c-11.689,0-21.165,9.476-21.165,21.165s9.476,21.165,21.165,21.165c11.689,0,21.165-9.476,21.165-21.165
            S597.769,442.282,586.081,442.282L586.081,442.282z"/>
        </g>
      </g>
      <path fill="#DF4006" d="M602.142,474.801c0,0-249.659,0-267.511,0s6.036-70.077,64.656-70.077c58.62,0,202.856,0,202.856,0
        V474.801z"/>
      <rect x="520.446" y="413.901" fill="#70CFD5" width="72.703" height="21.03"/>
      <rect x="437.313" y="413.901" fill="#70CFD5" width="72.703" height="21.03"/>
      <path fill="#70CFD5" d="M355.94,434.931h70.942v-21.03c0,0-11.191,0-33.873,0S355.94,434.931,355.94,434.931z"/>
      <g>
        <defs>
          <path id="SVGID_3_" d="M602.142,474.801c0,0-249.659,0-267.511,0s6.036-70.077,64.656-70.077c58.62,0,202.856,0,202.856,0
            V474.801z"/>
        </defs>
        <clipPath id="SVGID_4_">
          <use xlink:href="#SVGID_3_"  overflow="visible"/>
        </clipPath>
        <rect x="325.673" y="444.079" clip-path="url(#SVGID_4_)" fill="#FFFFFF" width="284.215" height="3.385"/>
        <rect x="303.741" y="464.612" clip-path="url(#SVGID_4_)" fill="#C33A1F" width="303.978" height="16.558"/>
      </g>
    </g>
  </g>
  <g opacity="0.75">
    <rect x="328.235" y="100.595" fill="none" width="224.867" height="51.244"/>
    <text transform="matrix(1 0 0 1 360.228 109.8671)"><tspan x="0" y="0" font-family="'ProximaNovaCond-Regular'" font-size="13.9018">waypay will automatically start</tspan><tspan x="-20.393" y="16.682" font-family="'ProximaNovaCond-Regular'" font-size="13.9018"> if you enter a public transport vehicle.</tspan></text>
  </g>
  <g>
    <g opacity="0.1">
      <path fill="#FFFFFF" d="M477.056,68.253c0-1.866,1.182-3.451,2.835-4.061v-9.188h-78.731v9.245
        c1.571,0.65,2.678,2.197,2.678,4.003c0,1.806-1.106,3.353-2.678,4.003v9.245h78.731v-9.188
        C478.238,71.704,477.056,70.118,477.056,68.253z"/>
    </g>
    <g>
      <path d="M480.522,82.131h-79.991V71.835l0.389-0.161c1.39-0.575,2.289-1.918,2.289-3.421c0-1.503-0.898-2.846-2.289-3.421
        l-0.389-0.161V54.374h79.991v10.257l-0.412,0.152c-1.449,0.534-2.423,1.929-2.423,3.469c0,1.541,0.974,2.935,2.423,3.469
        l0.412,0.152V82.131z M401.791,80.871h77.471v-8.14c-1.713-0.815-2.835-2.562-2.835-4.478c0-1.916,1.123-3.664,2.835-4.478v-8.14
        h-77.471v8.214c1.64,0.849,2.678,2.534,2.678,4.405s-1.038,3.556-2.678,4.405V80.871z"/>
    </g>
    <g>
      <path d="M410.582,63.262h1.634l2.281,7.031h0.136l2.264-7.031h1.294l2.332,7.031h0.136l2.162-7.031h1.583l-2.86,8.512h-2.06
        l-1.907-5.856h-0.102l-1.924,5.856h-2.111L410.582,63.262z"/>
      <path d="M425.103,63.841c1.277-0.528,2.213-0.749,3.626-0.749c2.502,0,3.677,0.885,3.677,2.962v3.558
        c0,0.817,0.204,1.038,1.055,1.038v1.124c-0.374,0.119-0.681,0.17-1.124,0.17c-0.698,0-1.123-0.528-1.192-1.396
        c-0.783,0.936-1.941,1.396-3.507,1.396c-1.992,0-3.047-1.004-3.047-2.605c0-0.766,0.221-1.362,0.8-2.026
        c1.532-0.477,3.098-0.681,5.482-0.732v-0.477c0-1.175-0.545-1.702-2.213-1.702c-1.072,0-2.111,0.221-3.217,0.698L425.103,63.841z
         M430.874,67.722c-1.975,0.034-3.234,0.204-4.341,0.511c-0.238,0.29-0.34,0.613-0.34,1.022c0,0.919,0.613,1.396,1.668,1.396
        c1.124,0,2.077-0.306,3.013-1.123V67.722z"/>
      <path d="M434.943,63.262l3.286,6.843h0.068l2.536-6.843h1.702l-4.188,10.146c-0.46,1.09-1.515,1.754-2.673,1.754
        c-0.426,0-0.698-0.068-1.123-0.221l0.238-1.226c0.221,0.051,0.46,0.085,0.664,0.085c0.8,0,1.379-0.272,1.753-1.192l0.306-0.766
        l-4.324-8.58H434.943z"/>
      <path d="M443.335,63.585c1.311-0.323,2.366-0.494,3.864-0.494c3.047,0,4.716,1.668,4.716,4.443c0,2.57-1.43,4.409-4.358,4.409
        c-1.157,0-1.873-0.204-2.639-0.8v4.545h-1.583V63.585z M444.918,69.68c0.817,0.698,1.617,0.936,2.639,0.936
        c1.719,0,2.775-1.141,2.775-3.081c0-2.111-1.175-3.201-3.132-3.201c-1.038,0-1.549,0.085-2.281,0.323V69.68z"/>
      <path d="M453.038,63.841c1.277-0.528,2.213-0.749,3.626-0.749c2.502,0,3.677,0.885,3.677,2.962v3.558
        c0,0.817,0.204,1.038,1.056,1.038v1.124c-0.375,0.119-0.681,0.17-1.124,0.17c-0.698,0-1.124-0.528-1.192-1.396
        c-0.783,0.936-1.941,1.396-3.507,1.396c-1.992,0-3.047-1.004-3.047-2.605c0-0.766,0.221-1.362,0.8-2.026
        c1.532-0.477,3.098-0.681,5.482-0.732v-0.477c0-1.175-0.545-1.702-2.213-1.702c-1.073,0-2.111,0.221-3.217,0.698L453.038,63.841z
         M458.809,67.722c-1.975,0.034-3.235,0.204-4.341,0.511c-0.238,0.29-0.341,0.613-0.341,1.022c0,0.919,0.613,1.396,1.668,1.396
        c1.124,0,2.077-0.306,3.013-1.123V67.722z"/>
      <path d="M462.878,63.262l3.285,6.843h0.068l2.537-6.843h1.702l-4.188,10.146c-0.46,1.09-1.515,1.754-2.673,1.754
        c-0.425,0-0.698-0.068-1.124-0.221l0.238-1.226c0.221,0.051,0.46,0.085,0.664,0.085c0.8,0,1.379-0.272,1.754-1.192l0.306-0.766
        l-4.324-8.58H462.878z"/>
    </g>
  </g>
  <g>
    <g>
      <rect x="502.941" y="257.617" fill="#5B453B" width="0.232" height="3.992"/>
      <rect x="509.757" y="257.617" fill="#5B453B" width="0.232" height="4.041"/>
      <path fill="#A03F2B" d="M511.762,266.252c0,0.859-0.897,1.555-2.003,1.555h-6.614c-1.106,0-2.003-0.696-2.003-1.555v-3.26
        c0-0.86,0.897-1.556,2.003-1.556c0,0,1.303,0.519,3.593,0.519c2.289,0,3.021-0.519,3.021-0.519c1.106,0,2.003,0.696,2.003,1.556
        V266.252z"/>
      <path fill="#833024" d="M507.132,265.697c-1.685,0.632-4.066,1.211-5.877,1.066c0.272,0.608,1.015,1.045,1.891,1.045h6.614
        c1.106,0,2.003-0.696,2.003-1.555v-3.122C511.285,263.58,509.718,264.727,507.132,265.697z"/>
      <path fill="#5B453B" d="M501.143,263.14c0,0,0.846,0.518,1.716-0.074c0,0,1.293,0.864,2.263-0.025c0,0,1.467,0.889,2.487-0.025
        c0,0,1.094,0.815,2.188,0.049c0,0,0.796,0.914,1.99,0.024v0.371c-1.062,0.889-1.99-0.025-1.99-0.025
        c-1.094,0.766-2.188-0.049-2.188-0.049c-1.02,0.913-2.487,0.025-2.487,0.025c-0.97,0.889-2.263,0.025-2.263,0.025
        c-0.87,0.593-1.716,0.074-1.716,0.074V263.14z"/>
      <g>
        <path fill="#F08D58" d="M503.034,263.594c0.001,0.006,0.001,0.014,0.001,0.02c0,0.156-0.069,0.282-0.154,0.282
          c-0.085,0-0.153-0.126-0.153-0.282c0-0.012,0.001-0.023,0.001-0.035c-0.362,0.129-0.65,0.741-0.65,1.136
          c0,0.443,0.344,0.802,0.768,0.802c0.424,0,0.768-0.359,0.768-0.802C503.615,264.333,503.372,263.749,503.034,263.594z"/>
        <path fill="#F08D58" d="M502.881,263.895c0.085,0,0.154-0.126,0.154-0.282c0-0.007,0-0.014-0.001-0.02
          c-0.006-0.146-0.072-0.261-0.153-0.261c-0.078,0-0.143,0.107-0.152,0.246c0,0.012-0.001,0.023-0.001,0.035
          C502.727,263.77,502.796,263.895,502.881,263.895z"/>
      </g>
      <g>
        <path fill="#F08D58" d="M505.281,263.594c0,0.006,0,0.014,0,0.02c0,0.156-0.069,0.282-0.154,0.282
          c-0.084,0-0.153-0.126-0.153-0.282c0-0.012,0-0.023,0.001-0.035c-0.362,0.129-0.65,0.741-0.65,1.136
          c0,0.443,0.344,0.802,0.768,0.802s0.768-0.359,0.768-0.802C505.862,264.333,505.62,263.749,505.281,263.594z"/>
        <path fill="#F08D58" d="M505.128,263.895c0.085,0,0.154-0.126,0.154-0.282c0-0.007,0-0.014,0-0.02
          c-0.005-0.146-0.072-0.261-0.153-0.261c-0.078,0-0.143,0.107-0.152,0.246c-0.001,0.012-0.001,0.023-0.001,0.035
          C504.975,263.77,505.044,263.895,505.128,263.895z"/>
      </g>
      <g>
        <path fill="#F08D58" d="M507.776,263.594c0,0.006,0,0.014,0,0.02c0,0.156-0.069,0.282-0.154,0.282
          c-0.084,0-0.153-0.126-0.153-0.282c0-0.012,0-0.023,0.001-0.035c-0.363,0.129-0.65,0.741-0.65,1.136
          c0,0.443,0.344,0.802,0.768,0.802c0.424,0,0.768-0.359,0.768-0.802C508.356,264.333,508.114,263.749,507.776,263.594z"/>
        <path fill="#F08D58" d="M507.622,263.895c0.085,0,0.154-0.126,0.154-0.282c0-0.007,0-0.014,0-0.02
          c-0.006-0.146-0.072-0.261-0.154-0.261c-0.078,0-0.142,0.107-0.152,0.246c-0.001,0.012-0.001,0.023-0.001,0.035
          C507.469,263.77,507.538,263.895,507.622,263.895z"/>
      </g>
      <g>
        <path fill="#F08D58" d="M509.964,263.594c0,0.006,0,0.014,0,0.02c0,0.156-0.069,0.282-0.153,0.282
          c-0.085,0-0.154-0.126-0.154-0.282c0-0.012,0.001-0.023,0.001-0.035c-0.362,0.129-0.649,0.741-0.649,1.136
          c0,0.443,0.344,0.802,0.768,0.802c0.424,0,0.768-0.359,0.768-0.802C510.545,264.333,510.302,263.749,509.964,263.594z"/>
        <path fill="#F08D58" d="M509.811,263.895c0.085,0,0.153-0.126,0.153-0.282c0-0.007,0-0.014,0-0.02
          c-0.006-0.146-0.072-0.261-0.153-0.261c-0.079,0-0.143,0.107-0.153,0.246c-0.001,0.012-0.001,0.023-0.001,0.035
          C509.658,263.77,509.727,263.895,509.811,263.895z"/>
      </g>
    </g>
    <path fill="#E35D53" d="M502.831,248.726c0,0-3.707-6.977-9.498-16.823c-0.049-0.084-0.099-0.168-0.149-0.253
      c-2.323-3.945-4.195-7.994-5.425-11.962c-1.226-3.955-1.814-7.829-1.574-11.44c0.128-1.93,0.492-3.785,1.123-5.537
      c0.719-1.998,1.696-3.508,2.76-4.647c-0.793,0.092-5.281,1.011-8.304,10.08c-0.012,0.034-0.022,0.069-0.033,0.104
      c-1.276,3.895-1.289,7.787-0.454,11.44c1.054,4.613,3.46,8.844,6.382,12.216c0.672,0.776,1.372,1.507,2.089,2.186
      c6.32,5.988,11.975,15.413,11.975,15.413s0.992,0.066,1.458-0.523C502.982,248.869,502.831,248.726,502.831,248.726z"/>
    <path fill="#E35D53" d="M530.91,208.248c-0.011-0.034-0.022-0.069-0.033-0.104c-3.023-9.069-7.511-9.988-8.304-10.08
      c1.065,1.138,2.041,2.648,2.76,4.647c0.631,1.752,0.994,3.607,1.123,5.537c0.24,3.611-0.348,7.485-1.574,11.44
      c-1.23,3.968-3.102,8.017-5.425,11.962c-0.05,0.085-0.099,0.169-0.149,0.253c-5.791,9.846-9.498,16.823-9.498,16.823
      s-0.151,0.143-0.35,0.253c0.468,0.59,1.458,0.523,1.458,0.523s5.655-9.425,11.975-15.413c0.717-0.679,1.416-1.41,2.089-2.186
      c2.922-3.372,5.328-7.603,6.382-12.216C532.199,216.035,532.185,212.143,530.91,208.248z"/>
    <path fill="#F2EFE8" d="M486.154,208.838c-0.021,0.517-0.026,1.039-0.015,1.566l0.029,0.787c0.027,0.535,0.07,1.074,0.128,1.618
      l0.094,0.787c0.065,0.49,0.143,0.982,0.231,1.477l0.081,0.44l0.057,0.281c0.023,0.113,0.046,0.226,0.069,0.339l0.176,0.787
      c0.215,0.917,0.466,1.84,0.754,2.769c1.23,3.968,3.102,8.017,5.425,11.962c0.05,0.085,0.099,0.169,0.149,0.253
      c5.791,9.846,9.498,16.823,9.498,16.823s0.151,0.143,0.35,0.253c0.309,0.171,0.731,0.262,0.876-0.388
      c-0.138-0.108-0.228-0.198-0.228-0.198s-2.913-9.303-5.798-16.49c-0.249-0.62-0.498-1.224-0.744-1.805
      c-1.318-3.107-2.697-6.575-3.642-10.411c-0.042-0.169-0.081-0.338-0.122-0.509l-0.177-0.786c-0.027-0.129-0.054-0.258-0.081-0.388
      l-0.154-0.786c-0.083-0.448-0.16-0.902-0.229-1.359h-0.023h-0.026v-0.327c-0.052-0.368-0.099-0.738-0.141-1.112v0.319l-0.05-0.786
      c-0.053-0.524-0.095-1.054-0.126-1.59l-0.037-0.787c-0.017-0.477-0.025-0.959-0.024-1.446l0.012-0.786
      c0.009-0.363,0.022-0.728,0.043-1.096c0.112-1.994,0.397-4.061,0.896-6.202c0.88-3.779,2.368-6.003,3.964-7.288
      c-0.757-0.138-4.366,0.167-7.302,3.307c-1.065,1.138-2.041,2.648-2.76,4.647c-0.631,1.752-0.994,3.607-1.123,5.537"/>
    <path fill="#F2EFE8" d="M526.593,208.248c-0.128-1.93-0.492-3.785-1.123-5.537c-0.719-1.998-1.696-3.508-2.76-4.647
      c-2.937-3.14-6.546-3.445-7.302-3.307c1.596,1.286,3.084,3.51,3.964,7.288c0.499,2.141,0.784,4.208,0.897,6.202
      c0.233,4.125-0.271,7.936-1.135,11.44c-0.946,3.835-2.324,7.303-3.642,10.411c-0.246,0.581-0.495,1.185-0.744,1.805
      c-2.885,7.187-5.798,16.49-5.798,16.49s-0.09,0.09-0.228,0.198c0.145,0.65,0.568,0.559,0.876,0.388
      c0.199-0.11,0.35-0.253,0.35-0.253s3.707-6.977,9.497-16.823c0.05-0.084,0.099-0.168,0.149-0.253
      c2.323-3.945,4.195-7.994,5.426-11.962C526.245,215.733,526.833,211.859,526.593,208.248z"/>
    <path fill="#E35D53" d="M505.048,248.061c-0.476-5.765-1.833-10.855-3.173-16.157c-0.972-3.847-1.934-7.806-2.546-12.216
      c-0.482-3.477-0.746-7.235-0.623-11.44c0.006-0.218,0.013-0.437,0.022-0.658c0.362-9.434,2.935-12.997,5.199-14.286
      c-0.986-0.232-3.92-0.671-6.557,1.454c-1.597,1.286-3.084,3.51-3.964,7.288c-0.499,2.141-0.783,4.208-0.896,6.202
      c-0.233,4.125,0.27,7.936,1.135,11.44c0.946,3.835,2.324,7.303,3.642,10.411c0.246,0.581,0.495,1.185,0.744,1.805
      c2.885,7.187,5.798,16.49,5.798,16.49s0.09,0.09,0.228,0.198c0.355,0.276,1.028,0.669,1.325-0.033
      C505.173,248.326,505.048,248.061,505.048,248.061z"/>
    <path fill="#E35D53" d="M520.268,208.248c-0.113-1.994-0.397-4.061-0.897-6.202c-0.88-3.779-2.367-6.003-3.964-7.288
      c-2.638-2.125-5.572-1.686-6.558-1.454c2.264,1.289,4.837,4.852,5.2,14.286c0.008,0.22,0.015,0.439,0.021,0.658
      c0.123,4.205-0.141,7.963-0.623,11.44c-0.611,4.41-1.574,8.369-2.546,12.216c-1.34,5.302-2.697,10.392-3.173,16.157
      c0,0-0.125,0.265-0.334,0.497c0.297,0.702,0.971,0.309,1.325,0.033c0.138-0.108,0.228-0.198,0.228-0.198s2.913-9.303,5.798-16.49
      c0.249-0.62,0.498-1.224,0.744-1.805c1.319-3.107,2.697-6.575,3.642-10.411C519.997,216.184,520.501,212.373,520.268,208.248z"/>
    <path fill="#F2EFE8" d="M514.071,208.248c-0.007-0.218-0.013-0.437-0.021-0.658c-0.363-9.434-2.936-12.997-5.2-14.286
      c-0.477-0.272-0.94-0.443-1.366-0.547c0.002-0.008,0.003-0.017,0.004-0.026c0,0-0.43-0.129-1.1-0.117
      c-0.668-0.012-1.098,0.117-1.098,0.117c0.001,0.008,0.003,0.017,0.004,0.026c-0.426,0.104-0.889,0.275-1.366,0.547
      c-2.264,1.289-4.837,4.852-5.199,14.286c-0.009,0.22-0.016,0.439-0.022,0.658c-0.123,4.205,0.14,7.963,0.623,11.44
      c0.612,4.41,1.574,8.369,2.546,12.216c1.34,5.302,2.697,10.392,3.173,16.157c0,0,0.125,0.265,0.333,0.497
      c0.243,0.271,0.601,0.496,1.007,0.203c0.407,0.293,0.763,0.067,1.007-0.203c0.208-0.232,0.334-0.497,0.334-0.497
      c0.476-5.765,1.833-10.855,3.173-16.157c0.972-3.847,1.934-7.806,2.546-12.216C513.93,216.211,514.194,212.453,514.071,208.248z"
      />
    <g>
      <path opacity="0.1" fill="#999999" d="M528.808,203.859c0,0,4.99,15.412-12.751,25.724c-17.741,10.312-33.042-5.877-33.042-5.877
        s1.109,4.546,5.988,9.425c4.878,4.879,12.308,14.858,12.751,16.41c0,0,5.544-1.663,8.871,0c0,0,5.987-9.647,11.974-15.967
        C528.586,227.255,536.015,216.943,528.808,203.859z"/>
    </g>
    <g>
      <g>
        <path fill="#5B453B" d="M503.409,257.791c-0.07,0-0.128-0.056-0.129-0.126c-0.082-4.269-0.527-6.657-0.531-6.681
          c-0.013-0.07,0.033-0.138,0.103-0.151c0.071-0.013,0.138,0.033,0.152,0.103c0.004,0.024,0.453,2.43,0.535,6.724
          c0.001,0.071-0.055,0.131-0.127,0.132C503.41,257.791,503.41,257.791,503.409,257.791z"/>
        <path fill="#5B453B" d="M504.817,257.643c-0.003,0-0.005,0-0.007-0.001c-0.071-0.004-0.126-0.064-0.122-0.136
          c0.157-2.824-0.133-6.644-0.172-6.87c-0.017-0.063,0.017-0.13,0.08-0.153c0.067-0.025,0.142,0.009,0.166,0.076
          c0.039,0.104,0.343,4.084,0.184,6.963C504.942,257.59,504.885,257.643,504.817,257.643z"/>
        <path fill="#5B453B" d="M506.441,257.439c-0.072,0-0.13-0.058-0.13-0.13l-0.002-6.819c0-0.072,0.058-0.129,0.129-0.129l0,0
          c0.071,0,0.129,0.058,0.129,0.129l0.002,6.819C506.57,257.381,506.512,257.439,506.441,257.439L506.441,257.439z"/>
        <path fill="#5B453B" d="M508.024,257.455c-0.063,0-0.119-0.048-0.128-0.113c-0.338-2.639,0.188-6.744,0.261-6.863
          c0.037-0.061,0.117-0.08,0.178-0.043c0.055,0.033,0.075,0.101,0.052,0.158c-0.072,0.275-0.562,4.159-0.235,6.715
          c0.01,0.071-0.04,0.136-0.111,0.145C508.035,257.454,508.03,257.455,508.024,257.455z"/>
        <path fill="#5B453B" d="M509.484,257.426c-0.067,0-0.124-0.052-0.129-0.12c-0.296-4.196,0.219-6.716,0.224-6.741
          c0.015-0.07,0.082-0.116,0.153-0.1c0.069,0.014,0.114,0.083,0.1,0.153c-0.005,0.025-0.512,2.513-0.218,6.669
          c0.005,0.071-0.049,0.133-0.12,0.138C509.49,257.426,509.487,257.426,509.484,257.426z"/>
      </g>
      <path fill="#C5644F" d="M501.425,249.029c0,0,4.694-2.437,9.99-0.06c0,0-0.963,1.715-1.264,3.279c0,0-4.332-0.812-7.492,0.301
        C502.658,252.549,502.478,250.834,501.425,249.029z"/>
      <path fill="#AC4C38" d="M502.478,251.496c0,0,3.25-1.445,7.883-0.12l-0.27,1.023c0,0-4.193-0.942-7.432,0.15L502.478,251.496z"/>
      <path opacity="0.4" fill="#B81A35" d="M501.195,248.635c0,0,4.783-2.689,10.441,0.052l-0.24,0.334c0,0-4.741-2.459-9.951,0.041
        L501.195,248.635z"/>
      <path fill="#C5644F" d="M502.87,257.445c0,0,3.857-1.038,7.263-0.08c0,0,0.612,0.479-0.106,0.958c0,0-3.752-0.771-7.104,0.213
        C502.922,258.536,502.23,258.003,502.87,257.445z"/>
    </g>
  </g>
</g>
</svg>
