<!-- Generator: Adobe Illustrator 18.1.1, SVG Export Plug-In  -->
<svg version="1.1"
   xmlns="http://www.w3.org/2000/svg" xmlns:xlink="http://www.w3.org/1999/xlink" xmlns:a="http://ns.adobe.com/AdobeSVGViewerExtensions/3.0/"
   x="0px" y="0px" width="259.2px" height="432.219px" viewBox="0 0 259.2 432.219" enable-background="new 0 0 259.2 432.219"
   xml:space="preserve">
<defs>
</defs>
<g>
  <path fill="#F8F8F8" d="M243.958,69.294H12.933c-0.552,0-1,0.448-1,1v110.937c0,0.552,0.448,1,1,1h231.025c0.552,0,1-0.448,1-1
    V70.294C244.958,69.742,244.511,69.294,243.958,69.294z"/>
  <path fill="#F8F8F8" d="M243.958,187.131H12.933c-0.552,0-1,0.448-1,1v110.937c0,0.552,0.448,1,1,1h231.025c0.552,0,1-0.448,1-1
    V188.131C244.958,187.579,244.511,187.131,243.958,187.131z"/>
  <rect x="0" y="0" fill="#333333" width="259.2" height="58.298"/>
  <g>
    <rect x="21.521" y="34.657" fill="none" width="133.418" height="12.172"/>
    <text transform="matrix(1 0 0 1 21.5216 43.4655)" fill="#FFFFFF" font-family="'ProximaNovaCond-Regular'" font-size="13.2068">Trip to Berlin-Schönefeld</text>
  </g>
  <g>
    <rect x="111.541" y="37.532" fill="none" width="133.418" height="12.172"/>
    <text transform="matrix(1 0 0 1 159.8211 43.5348)" fill="#FFFFFF" font-family="'ProximaNovaCond-Regular'" font-size="9">25.09.2015 / 14:11 - 14:25</text>
  </g>
  <rect x="29.521" y="84.743" fill="none" width="119.666" height="12.172"/>
  <text transform="matrix(1 0 0 1 29.5216 93.5517)" fill="#333333" font-family="'ProximaNovaCond-Regular'" font-size="13.2068">You saved</text>
  <path fill="#F8F8F8" d="M125.015,352.47H12.933c-0.552,0-1,0.448-1,1v41.242c0,0.552,0.448,1,1,1h112.082c0.552,0,1-0.448,1-1
    V353.47C126.015,352.918,125.567,352.47,125.015,352.47z"/>
  <path fill="#F8F8F8" d="M125.015,304.394H12.933c-0.552,0-1,0.448-1,1v41.242c0,0.552,0.448,1,1,1h112.082c0.552,0,1-0.448,1-1
    v-41.242C126.015,304.842,125.567,304.394,125.015,304.394z"/>
  <path fill="#F8F8F8" d="M243.958,352.47H131.876c-0.552,0-1,0.448-1,1v41.242c0,0.552,0.448,1,1,1h112.082c0.552,0,1-0.448,1-1
    V353.47C244.958,352.918,244.511,352.47,243.958,352.47z"/>
  <path fill="#F8F8F8" d="M243.958,304.394H131.876c-0.552,0-1,0.448-1,1v41.242c0,0.552,0.448,1,1,1h112.082c0.552,0,1-0.448,1-1
    v-41.242C244.958,304.842,244.511,304.394,243.958,304.394z"/>
  <g>
    <rect x="65.083" y="365.218" fill="none" width="44.485" height="16.846"/>
    <text transform="matrix(1 0 0 1 65.0832 380.1481)" fill="#1A1A1A" font-family="'ProximaNovaCond-Regular'" font-size="22.3842">14km</text>
  </g>
  <g>
    <rect x="23.933" y="364.957" fill="none" width="50.595" height="17.369"/>
    <text transform="matrix(1 0 0 1 23.9328 370.9595)"><tspan x="0" y="0" fill="#1A1A1A" font-family="'ProximaNovaCond-Regular'" font-size="9">trip</tspan><tspan x="0" y="10.8" fill="#1A1A1A" font-family="'ProximaNovaCond-Regular'" font-size="9">length</tspan></text>
  </g>
  <g>
    <rect x="185.568" y="365.218" fill="none" width="51.735" height="16.846"/>
    
      <text transform="matrix(1 0 0 1 185.5686 380.1481)" fill="#1A1A1A" font-family="'ProximaNovaCond-Regular'" font-size="22.3842">21min</text>
  </g>
  <g>
    <rect x="144.419" y="364.957" fill="none" width="50.595" height="17.369"/>
    <text transform="matrix(1 0 0 1 144.4182 370.9595)"><tspan x="0" y="0" fill="#1A1A1A" font-family="'ProximaNovaCond-Regular'" font-size="9">trip</tspan><tspan x="0" y="10.8" fill="#1A1A1A" font-family="'ProximaNovaCond-Regular'" font-size="9">duration</tspan></text>
  </g>
  <g>
    <rect x="65.083" y="317.592" fill="none" width="67.885" height="16.846"/>
    <text transform="matrix(1 0 0 1 65.0832 332.5213)" fill="#1A1A1A" font-family="'ProximaNovaCond-Regular'" font-size="22.3842">2,60</text>
  </g>
  <g>
    <rect x="25.283" y="119.447" fill="none" width="195.693" height="43.311"/>
    <text transform="matrix(1 0 0 1 25.2832 157.8318)" fill="#1A1A1A" font-family="'ProximaNovaCond-Regular'" font-size="57.5494">31g CO</text>
    
      <text transform="matrix(0.583 0 0 0.583 176.0595 169.7155)" fill="#1A1A1A" font-family="'ProximaNovaCond-Regular'" font-size="57.5494">2</text>
  </g>
  <rect x="29.521" y="204.592" fill="none" width="119.666" height="12.172"/>
  <text transform="matrix(1 0 0 1 29.5216 213.4012)" fill="#333333" font-family="'ProximaNovaCond-Regular'" font-size="13.2068">You saved</text>
  <g>
    <g>
      <path fill="#1A1A1A" d="M27.988,260.99c0-9.267,3.108-19.8,12.087-19.8s12.087,10.533,12.087,19.8
        c0,9.209-3.108,19.856-12.087,19.856S27.988,270.199,27.988,260.99z M47.442,260.99c0-7.598-1.438-15.713-7.367-15.713
        s-7.367,8.115-7.367,15.713c0,7.54,1.438,15.771,7.367,15.771C45.946,276.76,47.442,268.53,47.442,260.99z"/>
      <path fill="#1A1A1A" d="M58.721,287.408l-2.072-1.669c1.842-1.267,3.454-3.511,3.684-5.353c-0.114,0-0.46,0.058-0.748,0.058
        c-1.554,0-2.705-1.209-2.705-2.82c0-1.669,1.267-3.051,2.993-3.051c1.842,0,3.453,1.554,3.453,4.316
        C63.325,282.343,61.311,285.566,58.721,287.408z"/>
      <path fill="#1A1A1A" d="M69.424,280.156l12.087-34.304H65.222v-4.086H86.69v3.165l-12.374,35.225H69.424z"/>
      <path fill="#1A1A1A" d="M90.831,260.99c0-9.267,3.108-19.8,12.087-19.8s12.087,10.533,12.087,19.8
        c0,9.209-3.108,19.856-12.087,19.856S90.831,270.199,90.831,260.99z M110.285,260.99c0-7.598-1.439-15.713-7.367-15.713
        c-5.929,0-7.367,8.115-7.367,15.713c0,7.54,1.438,15.771,7.367,15.771C108.789,276.76,110.285,268.53,110.285,260.99z"/>
      <path fill="#1A1A1A" d="M146.771,275.954v4.201h-26.591v-4.201H146.771z M146.196,241.363v4.145h-25.382v-4.145H146.196z
         M144.239,257.996v4.145h-21.525v-4.145H144.239z"/>
    </g>
  </g>
  <g>
    <rect x="23.933" y="317.331" fill="none" width="50.595" height="17.369"/>
    <text transform="matrix(1 0 0 1 23.9328 323.3337)"><tspan x="0" y="0" fill="#1A1A1A" font-family="'ProximaNovaCond-Regular'" font-size="9">trip</tspan><tspan x="0" y="10.8" fill="#1A1A1A" font-family="'ProximaNovaCond-Regular'" font-size="9">price (</tspan><tspan x="21.14" y="10.8" fill="#1A1A1A" font-family="'MyriadPro-Regular'" font-size="9">Ξ</tspan><tspan x="26.073" y="10.8" fill="#1A1A1A" font-family="'ProximaNovaCond-Regular'" font-size="9">)</tspan></text>
  </g>
  <g>
    <rect x="90.845" y="88.231" fill="none" width="102.063" height="17.369"/>
    <text transform="matrix(1 0 0 1 90.8453 94.2336)" fill="#1A1A1A" font-family="'ProximaNovaCond-Regular'" font-size="9">By not using a car</text>
  </g>
  <g>
    <rect x="90.845" y="207.08" fill="none" width="102.063" height="17.369"/>
    <text transform="matrix(1 0 0 1 90.8453 213.083)" fill="#1A1A1A" font-family="'ProximaNovaCond-Regular'" font-size="9">From the regular ticket price</text>
  </g>
  <g>
    <rect x="144.419" y="317.331" fill="none" width="50.595" height="17.369"/>
    <text transform="matrix(1 0 0 1 144.4182 323.3337)"><tspan x="0" y="0" fill="#1A1A1A" font-family="'ProximaNovaCond-Regular'" font-size="9">Price</tspan><tspan x="0" y="10.8" fill="#1A1A1A" font-family="'ProximaNovaCond-Regular'" font-size="9">Rating</tspan></text>
  </g>
  <path fill="#39B54A" d="M211.976,317.109h-28.095c-0.552,0-1,0.448-1,1v16.805c0,0.552,0.448,1,1,1h28.095c0.552,0,1-0.448,1-1
    v-16.805C212.976,317.556,212.528,317.109,211.976,317.109z"/>
  <g>
    <rect x="188.711" y="322.391" fill="none" width="21.489" height="8.112"/>
    
      <text transform="matrix(1 0 0 1 188.7099 329.6764)" fill="#FFFFFF" font-family="'ProximaNovaCond-Regular'" font-size="10.9228">best</text>
  </g>
  <circle fill="#333333" cx="128.446" cy="408.665" r="23.554"/>
  <polyline fill="none" stroke="#FFFFFF" stroke-linecap="round" stroke-linejoin="round" stroke-miterlimit="10" points="
    116.692,403.629 128.847,415.784 140.698,403.933   "/>
</g>
</svg>
