<?xml version="1.0" encoding="utf-8"?>
<!-- Generator: Adobe Illustrator 18.1.1, SVG Export Plug-In . SVG Version: 6.00 Build 0)  -->
<!DOCTYPE svg PUBLIC "-//W3C//DTD SVG 1.1//EN" "http://www.w3.org/Graphics/SVG/1.1/DTD/svg11.dtd">
<svg version="1.1" id="Ebene_1" xmlns="http://www.w3.org/2000/svg" xmlns:xlink="http://www.w3.org/1999/xlink" x="0px" y="0px"
	 viewBox="0 0 259.2 436.325" enable-background="new 0 0 259.2 436.325" xml:space="preserve">
<g>
	<g>
		<defs>
			<rect id="SVGID_1_" y="0" width="259.2" height="517.658"/>
		</defs>
		<clipPath id="SVGID_2_">
			<use xlink:href="#SVGID_1_"  overflow="visible"/>
		</clipPath>
		<rect x="-8.891" y="-2.132" clip-path="url(#SVGID_2_)" fill="#47D2FC" width="272.903" height="462.716"/>
		<path clip-path="url(#SVGID_2_)" fill="#1C7F0A" d="M943.946,488.418c0,0-59.733-78.129-188.268-146.122
			c-61.923-32.756-185.724-13.217-227.702,11.184c-41.979,24.401-180.635-22.367-225.158-40.668
			c-44.523-18.301-128.48,45.751-186.996,38.634s-76.579-51.851-146.543-18.301S-131,439.277-162,434.816v70.152l1117.14,6.1
			L943.946,488.418z"/>
		<path clip-path="url(#SVGID_2_)" fill="#359700" d="M755,428.09c-135-12.083-173.432-126.97-313.982-107.652
			s-145.492,52.868-263.043,9.15S59.231,367.426-13.6,393.86c-72.831,26.434-93.828,106.465-93.828,106.465H755V428.09z"/>
		<path clip-path="url(#SVGID_2_)" fill="#8EDD20" d="M815.073,429.039c-39.56-20.195-77.352-84.495-189.148-47.092
			c-164.098,54.902-230.371-10.741-295.122-10.741c-66.148,0-183.088,63.399-284.946,48.359
			c-57.612-8.507-152.65-32.534-192.084-12.2c-39.434,20.334-82.685,67.102-162.826,76.76c-80.141,9.659,1252.998,0,1252.998,0
			S872.489,458.349,815.073,429.039z"/>
		<g clip-path="url(#SVGID_2_)">
			<path fill="#D2EDF9" d="M238.573,36.386c-0.027,0-0.053,0.003-0.08,0.004c-0.592-4.876-4.738-8.656-9.774-8.656
				c-5.442,0-9.853,4.411-9.853,9.853c0,0.055,0.007,0.108,0.008,0.162c-0.39-0.096-0.79-0.162-1.21-0.162
				c-2.575,0-4.676,1.936-4.985,4.428c-0.622-0.218-1.289-0.343-1.985-0.343c-3.318,0-6.008,2.69-6.008,6.009
				c0,3.318,2.69,6.008,6.008,6.008h27.879c4.778,0,8.652-3.873,8.652-8.652C247.225,40.259,243.352,36.386,238.573,36.386z"/>
			<path fill="#FBFAF0" d="M208.995,50.168c0.697,0,1.363,0.125,1.985,0.343c0.309-2.492,2.41-4.428,4.985-4.428
				c0.42,0,0.821,0.066,1.21,0.162c-0.001-0.054-0.008-0.107-0.008-0.162c0-5.442,4.412-9.853,9.854-9.853
				c5.036,0,9.182,3.78,9.774,8.656c0.027-0.001,0.053-0.004,0.08-0.004c3.805,0,7.034,2.457,8.192,5.87
				c1.343-1.525,2.159-3.524,2.159-5.715c0-4.778-3.873-8.651-8.652-8.651c-0.027,0-0.053,0.003-0.08,0.004
				c-0.592-4.876-4.738-8.656-9.774-8.656c-5.442,0-9.853,4.411-9.853,9.853c0,0.055,0.007,0.108,0.008,0.162
				c-0.39-0.096-0.79-0.162-1.21-0.162c-2.575,0-4.676,1.936-4.985,4.428c-0.622-0.218-1.289-0.343-1.985-0.343
				c-3.318,0-6.008,2.69-6.008,6.009c0,1.278,0.402,2.46,1.082,3.434C206.701,50.519,207.806,50.168,208.995,50.168z"/>
		</g>
		<g clip-path="url(#SVGID_2_)">
			<path fill="#D2EDF9" d="M85.549,177.779c-0.043,0-0.084,0.006-0.127,0.006c-0.939-7.732-7.514-13.727-15.499-13.727
				c-8.63,0-15.626,6.996-15.626,15.626c0,0.087,0.012,0.171,0.014,0.258c-0.618-0.152-1.253-0.258-1.919-0.258
				c-4.084,0-7.415,3.07-7.905,7.023c-0.985-0.345-2.043-0.543-3.148-0.543c-5.263,0-9.528,4.266-9.528,9.528
				c0,5.262,4.266,9.528,9.528,9.528h44.211c7.578,0,13.72-6.143,13.72-13.721C99.269,183.921,93.127,177.779,85.549,177.779z"/>
			<path fill="#FBFAF0" d="M38.643,199.637c1.105,0,2.162,0.199,3.147,0.544c0.49-3.952,3.822-7.023,7.905-7.023
				c0.666,0,1.302,0.105,1.919,0.258c-0.001-0.086-0.014-0.17-0.014-0.258c0-8.63,6.996-15.626,15.627-15.626
				c7.986,0,14.561,5.995,15.499,13.727c0.043-0.001,0.084-0.006,0.127-0.006c6.035,0,11.155,3.897,12.991,9.309
				c2.13-2.417,3.424-5.587,3.424-9.063c0-7.578-6.143-13.72-13.72-13.72c-0.043,0-0.084,0.006-0.127,0.006
				c-0.939-7.732-7.514-13.727-15.499-13.727c-8.63,0-15.626,6.996-15.626,15.626c0,0.087,0.012,0.171,0.014,0.258
				c-0.618-0.152-1.253-0.258-1.919-0.258c-4.084,0-7.415,3.07-7.905,7.023c-0.985-0.345-2.043-0.543-3.148-0.543
				c-5.263,0-9.528,4.266-9.528,9.528c0,2.026,0.637,3.901,1.716,5.445C35.004,200.192,36.757,199.637,38.643,199.637z"/>
		</g>
		<g clip-path="url(#SVGID_2_)">
			<path fill="#DF4006" d="M289.615,472.669c0,0-249.659,0-267.511,0s6.036-70.077,64.656-70.077s202.856,0,202.856,0V472.669z"/>
			<rect x="207.92" y="411.769" fill="#70CFD5" width="72.703" height="21.03"/>
			<rect x="124.786" y="411.769" fill="#70CFD5" width="72.703" height="21.03"/>
			<path fill="#70CFD5" d="M43.414,432.799h70.942v-21.03c0,0-11.191,0-33.873,0S43.414,432.799,43.414,432.799z"/>
			<g>
				<defs>
					<path id="SVGID_3_" d="M289.615,472.669c0,0-249.659,0-267.511,0s6.036-70.077,64.656-70.077s202.856,0,202.856,0V472.669z"/>
				</defs>
				<clipPath id="SVGID_4_">
					<use xlink:href="#SVGID_3_"  overflow="visible"/>
				</clipPath>
			</g>
		</g>
	</g>
	<g opacity="0.75">
		<rect x="15.709" y="98.463" fill="none" width="224.867" height="51.244"/>
		<text transform="matrix(1 0 0 1 47.7017 107.7351)"><tspan x="0" y="0" font-family="'ProximaNovaCond-Regular'" font-size="13.9018">waypay will automatically start</tspan><tspan x="-20.393" y="16.682" font-family="'ProximaNovaCond-Regular'" font-size="13.9018"> if you enter a public transport vehicle.</tspan></text>
	</g>
	<g>
		<g opacity="0.1">
			<path fill="#FFFFFF" d="M164.53,66.121c0-1.866,1.182-3.451,2.835-4.061v-9.188H88.634v9.245c1.571,0.65,2.678,2.197,2.678,4.003
				c0,1.806-1.106,3.353-2.678,4.003v9.245h78.731v-9.188C165.712,69.572,164.53,67.986,164.53,66.121z"/>
		</g>
		<g>
			<path d="M167.996,79.999H88.004V69.703l0.389-0.161c1.39-0.575,2.289-1.918,2.289-3.421c0-1.503-0.898-2.846-2.289-3.421
				l-0.389-0.161V52.242h79.991v10.257l-0.412,0.152c-1.449,0.534-2.423,1.929-2.423,3.469c0,1.541,0.974,2.935,2.423,3.469
				l0.412,0.152V79.999z M89.264,78.739h77.471v-8.14c-1.713-0.815-2.835-2.562-2.835-4.478c0-1.916,1.123-3.664,2.835-4.478v-8.14
				H89.264v8.214c1.64,0.849,2.678,2.534,2.678,4.405c0,1.871-1.038,3.556-2.678,4.405V78.739z"/>
		</g>
		<g>
			<path d="M98.056,61.13h1.634l2.281,7.031h0.136l2.264-7.031h1.294l2.332,7.031h0.136l2.162-7.031h1.583l-2.86,8.512h-2.06
				l-1.907-5.856h-0.102l-1.924,5.856h-2.111L98.056,61.13z"/>
			<path d="M112.577,61.709c1.277-0.528,2.213-0.749,3.626-0.749c2.502,0,3.677,0.885,3.677,2.962v3.558
				c0,0.817,0.204,1.038,1.055,1.038v1.124c-0.374,0.119-0.681,0.17-1.123,0.17c-0.698,0-1.123-0.528-1.192-1.396
				c-0.783,0.936-1.941,1.396-3.507,1.396c-1.992,0-3.047-1.004-3.047-2.605c0-0.766,0.221-1.362,0.8-2.026
				c1.532-0.477,3.098-0.681,5.482-0.732v-0.477c0-1.175-0.545-1.702-2.213-1.702c-1.072,0-2.111,0.221-3.217,0.698L112.577,61.709z
				 M118.348,65.59c-1.975,0.034-3.234,0.204-4.341,0.511c-0.238,0.29-0.34,0.613-0.34,1.022c0,0.919,0.613,1.396,1.668,1.396
				c1.123,0,2.077-0.306,3.013-1.123V65.59z"/>
			<path d="M122.416,61.13l3.286,6.843h0.068l2.536-6.843h1.702l-4.188,10.146c-0.46,1.09-1.515,1.754-2.673,1.754
				c-0.426,0-0.698-0.068-1.123-0.221l0.238-1.226c0.221,0.051,0.46,0.085,0.664,0.085c0.8,0,1.379-0.272,1.753-1.192l0.306-0.766
				l-4.324-8.58H122.416z"/>
			<path d="M130.809,61.453c1.311-0.323,2.366-0.494,3.864-0.494c3.047,0,4.716,1.668,4.716,4.443c0,2.57-1.43,4.409-4.358,4.409
				c-1.157,0-1.873-0.204-2.639-0.8v4.545h-1.583V61.453z M132.392,67.548c0.817,0.698,1.617,0.936,2.639,0.936
				c1.719,0,2.775-1.141,2.775-3.081c0-2.111-1.175-3.201-3.132-3.201c-1.038,0-1.549,0.085-2.281,0.323V67.548z"/>
			<path d="M140.512,61.709c1.277-0.528,2.213-0.749,3.626-0.749c2.502,0,3.677,0.885,3.677,2.962v3.558
				c0,0.817,0.204,1.038,1.056,1.038v1.124c-0.375,0.119-0.681,0.17-1.124,0.17c-0.698,0-1.124-0.528-1.192-1.396
				c-0.783,0.936-1.941,1.396-3.507,1.396c-1.992,0-3.047-1.004-3.047-2.605c0-0.766,0.221-1.362,0.8-2.026
				c1.532-0.477,3.098-0.681,5.482-0.732v-0.477c0-1.175-0.545-1.702-2.213-1.702c-1.073,0-2.111,0.221-3.217,0.698L140.512,61.709z
				 M146.283,65.59c-1.975,0.034-3.235,0.204-4.341,0.511c-0.238,0.29-0.341,0.613-0.341,1.022c0,0.919,0.613,1.396,1.668,1.396
				c1.124,0,2.077-0.306,3.013-1.123V65.59z"/>
			<path d="M150.351,61.13l3.285,6.843h0.068l2.537-6.843h1.702l-4.188,10.146c-0.46,1.09-1.515,1.754-2.673,1.754
				c-0.425,0-0.698-0.068-1.124-0.221l0.238-1.226c0.221,0.051,0.46,0.085,0.664,0.085c0.8,0,1.379-0.272,1.754-1.192l0.306-0.766
				l-4.324-8.58H150.351z"/>
		</g>
	</g>
	<g>
		<g>
			<rect x="190.414" y="255.485" fill="#5B453B" width="0.232" height="3.992"/>
			<rect x="197.231" y="255.485" fill="#5B453B" width="0.232" height="4.041"/>
			<path fill="#A03F2B" d="M199.236,264.12c0,0.859-0.897,1.555-2.003,1.555h-6.614c-1.106,0-2.003-0.696-2.003-1.555v-3.26
				c0-0.86,0.897-1.556,2.003-1.556c0,0,1.303,0.519,3.593,0.519c2.289,0,3.021-0.519,3.021-0.519c1.106,0,2.003,0.696,2.003,1.556
				V264.12z"/>
			<path fill="#833024" d="M194.606,263.565c-1.685,0.632-4.066,1.211-5.877,1.066c0.272,0.608,1.015,1.045,1.891,1.045h6.614
				c1.106,0,2.003-0.696,2.003-1.555v-3.122C198.759,261.448,197.192,262.595,194.606,263.565z"/>
			<path fill="#5B453B" d="M188.617,261.008c0,0,0.846,0.518,1.716-0.074c0,0,1.293,0.864,2.263-0.025c0,0,1.467,0.889,2.487-0.025
				c0,0,1.094,0.815,2.188,0.049c0,0,0.796,0.914,1.99,0.024v0.371c-1.062,0.889-1.99-0.025-1.99-0.025
				c-1.094,0.766-2.188-0.049-2.188-0.049c-1.02,0.913-2.487,0.025-2.487,0.025c-0.97,0.889-2.263,0.025-2.263,0.025
				c-0.87,0.593-1.716,0.074-1.716,0.074V261.008z"/>
			<g>
				<path fill="#F08D58" d="M190.508,261.462c0.001,0.006,0.001,0.014,0.001,0.02c0,0.156-0.069,0.282-0.154,0.282
					c-0.085,0-0.153-0.126-0.153-0.282c0-0.012,0.001-0.023,0.001-0.035c-0.362,0.129-0.65,0.741-0.65,1.136
					c0,0.443,0.344,0.802,0.768,0.802s0.768-0.359,0.768-0.802C191.088,262.201,190.846,261.617,190.508,261.462z"/>
				<path fill="#F08D58" d="M190.355,261.763c0.085,0,0.154-0.126,0.154-0.282c0-0.006,0-0.014-0.001-0.02
					c-0.006-0.146-0.072-0.261-0.153-0.261c-0.078,0-0.143,0.107-0.152,0.246c0,0.012-0.001,0.023-0.001,0.035
					C190.201,261.638,190.27,261.763,190.355,261.763z"/>
			</g>
			<g>
				<path fill="#F08D58" d="M192.755,261.462c0,0.006,0,0.014,0,0.02c0,0.156-0.069,0.282-0.154,0.282
					c-0.084,0-0.153-0.126-0.153-0.282c0-0.012,0-0.023,0.001-0.035c-0.362,0.129-0.65,0.741-0.65,1.136
					c0,0.443,0.344,0.802,0.768,0.802c0.424,0,0.768-0.359,0.768-0.802C193.336,262.201,193.093,261.617,192.755,261.462z"/>
				<path fill="#F08D58" d="M192.602,261.763c0.085,0,0.154-0.126,0.154-0.282c0-0.006,0-0.014,0-0.02
					c-0.005-0.146-0.072-0.261-0.153-0.261c-0.078,0-0.143,0.107-0.152,0.246c-0.001,0.012-0.001,0.023-0.001,0.035
					C192.449,261.638,192.518,261.763,192.602,261.763z"/>
			</g>
			<g>
				<path fill="#F08D58" d="M195.25,261.462c0,0.006,0,0.014,0,0.02c0,0.156-0.069,0.282-0.154,0.282
					c-0.084,0-0.153-0.126-0.153-0.282c0-0.012,0-0.023,0.001-0.035c-0.363,0.129-0.65,0.741-0.65,1.136
					c0,0.443,0.344,0.802,0.768,0.802c0.424,0,0.768-0.359,0.768-0.802C195.83,262.201,195.588,261.617,195.25,261.462z"/>
				<path fill="#F08D58" d="M195.096,261.763c0.085,0,0.154-0.126,0.154-0.282c0-0.006,0-0.014,0-0.02
					c-0.006-0.146-0.072-0.261-0.154-0.261c-0.078,0-0.142,0.107-0.152,0.246c-0.001,0.012-0.001,0.023-0.001,0.035
					C194.943,261.638,195.012,261.763,195.096,261.763z"/>
			</g>
			<g>
				<path fill="#F08D58" d="M197.438,261.462c0,0.006,0,0.014,0,0.02c0,0.156-0.069,0.282-0.153,0.282s-0.154-0.126-0.154-0.282
					c0-0.012,0.001-0.023,0.001-0.035c-0.362,0.129-0.649,0.741-0.649,1.136c0,0.443,0.344,0.802,0.768,0.802
					c0.424,0,0.768-0.359,0.768-0.802C198.019,262.201,197.776,261.617,197.438,261.462z"/>
				<path fill="#F08D58" d="M197.285,261.763c0.085,0,0.153-0.126,0.153-0.282c0-0.006,0-0.014,0-0.02
					c-0.006-0.146-0.072-0.261-0.153-0.261c-0.079,0-0.143,0.107-0.153,0.246c-0.001,0.012-0.001,0.023-0.001,0.035
					C197.131,261.638,197.2,261.763,197.285,261.763z"/>
			</g>
		</g>
		<path fill="#E35D53" d="M190.304,246.594c0,0-3.706-6.977-9.498-16.823c-0.049-0.084-0.099-0.168-0.149-0.253
			c-2.323-3.945-4.195-7.994-5.425-11.962c-1.226-3.955-1.814-7.829-1.574-11.44c0.128-1.93,0.492-3.785,1.123-5.537
			c0.719-1.998,1.696-3.508,2.76-4.647c-0.793,0.092-5.281,1.011-8.304,10.08c-0.012,0.034-0.022,0.069-0.033,0.104
			c-1.276,3.895-1.289,7.787-0.454,11.44c1.054,4.613,3.46,8.844,6.382,12.216c0.672,0.776,1.372,1.507,2.089,2.186
			c6.32,5.988,11.975,15.413,11.975,15.413s0.992,0.066,1.458-0.523C190.456,246.737,190.304,246.594,190.304,246.594z"/>
		<path fill="#E35D53" d="M218.383,206.116c-0.011-0.034-0.022-0.069-0.033-0.104c-3.023-9.069-7.511-9.988-8.304-10.08
			c1.065,1.138,2.041,2.648,2.76,4.647c0.631,1.752,0.994,3.607,1.123,5.537c0.24,3.611-0.348,7.485-1.574,11.44
			c-1.23,3.968-3.102,8.017-5.425,11.962c-0.05,0.085-0.099,0.169-0.149,0.253c-5.791,9.846-9.498,16.823-9.498,16.823
			s-0.151,0.143-0.35,0.253c0.468,0.59,1.458,0.523,1.458,0.523s5.655-9.425,11.975-15.413c0.717-0.679,1.416-1.41,2.089-2.186
			c2.922-3.372,5.328-7.603,6.382-12.216C219.672,213.903,219.659,210.011,218.383,206.116z"/>
		<path fill="#F2EFE8" d="M173.628,206.706c-0.021,0.517-0.026,1.039-0.015,1.566l0.029,0.787c0.027,0.535,0.07,1.074,0.128,1.618
			l0.094,0.787c0.065,0.49,0.143,0.982,0.231,1.477l0.081,0.44l0.057,0.281c0.023,0.113,0.046,0.226,0.069,0.339l0.176,0.787
			c0.215,0.917,0.466,1.84,0.754,2.769c1.23,3.968,3.102,8.017,5.425,11.962c0.05,0.085,0.099,0.169,0.149,0.253
			c5.791,9.846,9.498,16.823,9.498,16.823s0.151,0.143,0.35,0.253c0.309,0.171,0.731,0.262,0.876-0.388
			c-0.138-0.108-0.228-0.198-0.228-0.198s-2.913-9.303-5.798-16.49c-0.249-0.62-0.498-1.224-0.744-1.805
			c-1.318-3.108-2.697-6.575-3.642-10.411c-0.042-0.169-0.081-0.338-0.122-0.509l-0.177-0.786c-0.027-0.129-0.054-0.258-0.081-0.388
			l-0.154-0.786c-0.083-0.448-0.16-0.902-0.229-1.359h-0.023h-0.026V213.4c-0.052-0.368-0.099-0.738-0.141-1.112v0.319l-0.05-0.786
			c-0.053-0.524-0.095-1.054-0.126-1.59l-0.037-0.787c-0.017-0.477-0.025-0.959-0.024-1.446l0.012-0.786
			c0.009-0.363,0.022-0.728,0.043-1.096c0.112-1.994,0.397-4.061,0.896-6.202c0.881-3.779,2.368-6.003,3.964-7.288
			c-0.757-0.138-4.366,0.167-7.302,3.307c-1.065,1.138-2.041,2.648-2.76,4.647c-0.631,1.752-0.994,3.607-1.123,5.537"/>
		<path fill="#F2EFE8" d="M214.067,206.116c-0.128-1.93-0.493-3.785-1.123-5.537c-0.719-1.998-1.696-3.508-2.76-4.647
			c-2.937-3.14-6.546-3.445-7.302-3.307c1.596,1.286,3.084,3.51,3.964,7.288c0.499,2.141,0.784,4.208,0.897,6.202
			c0.233,4.125-0.27,7.936-1.135,11.44c-0.946,3.835-2.324,7.303-3.642,10.411c-0.246,0.581-0.495,1.185-0.744,1.805
			c-2.885,7.187-5.798,16.49-5.798,16.49s-0.09,0.09-0.228,0.198c0.145,0.65,0.568,0.559,0.876,0.388
			c0.199-0.11,0.35-0.253,0.35-0.253s3.707-6.977,9.497-16.823c0.05-0.084,0.099-0.168,0.149-0.253
			c2.323-3.945,4.195-7.994,5.426-11.962C213.719,213.601,214.307,209.727,214.067,206.116z"/>
		<path fill="#E35D53" d="M192.522,245.929c-0.476-5.765-1.833-10.855-3.173-16.157c-0.972-3.847-1.934-7.806-2.546-12.216
			c-0.482-3.477-0.746-7.235-0.623-11.44c0.006-0.218,0.013-0.437,0.022-0.658c0.362-9.434,2.935-12.997,5.199-14.286
			c-0.986-0.232-3.92-0.671-6.557,1.454c-1.597,1.286-3.084,3.51-3.964,7.288c-0.499,2.141-0.783,4.208-0.896,6.202
			c-0.233,4.125,0.27,7.936,1.135,11.44c0.946,3.835,2.324,7.303,3.642,10.411c0.246,0.581,0.495,1.185,0.744,1.805
			c2.885,7.187,5.798,16.49,5.798,16.49s0.09,0.09,0.228,0.198c0.355,0.276,1.028,0.669,1.325-0.033
			C192.647,246.194,192.522,245.929,192.522,245.929z"/>
		<path fill="#E35D53" d="M207.742,206.116c-0.113-1.994-0.397-4.061-0.897-6.202c-0.88-3.779-2.367-6.003-3.964-7.288
			c-2.638-2.125-5.572-1.686-6.558-1.454c2.264,1.289,4.837,4.852,5.2,14.286c0.008,0.22,0.015,0.439,0.021,0.658
			c0.123,4.205-0.141,7.963-0.623,11.44c-0.611,4.41-1.574,8.369-2.546,12.216c-1.34,5.302-2.697,10.392-3.173,16.157
			c0,0-0.125,0.265-0.334,0.497c0.297,0.702,0.971,0.309,1.325,0.033c0.138-0.108,0.228-0.198,0.228-0.198s2.913-9.303,5.798-16.49
			c0.249-0.62,0.498-1.224,0.744-1.805c1.319-3.108,2.697-6.575,3.642-10.411C207.471,214.052,207.975,210.241,207.742,206.116z"/>
		<path fill="#F2EFE8" d="M201.545,206.116c-0.006-0.218-0.013-0.437-0.021-0.658c-0.363-9.434-2.936-12.997-5.2-14.286
			c-0.477-0.272-0.94-0.443-1.366-0.547c0.002-0.008,0.003-0.017,0.004-0.026c0,0-0.43-0.129-1.1-0.117
			c-0.668-0.012-1.098,0.117-1.098,0.117c0.001,0.008,0.003,0.017,0.004,0.026c-0.426,0.104-0.889,0.275-1.366,0.547
			c-2.264,1.289-4.837,4.852-5.199,14.286c-0.009,0.22-0.016,0.439-0.022,0.658c-0.123,4.205,0.14,7.963,0.623,11.44
			c0.612,4.41,1.574,8.369,2.546,12.216c1.34,5.302,2.697,10.392,3.173,16.157c0,0,0.125,0.265,0.333,0.497
			c0.243,0.271,0.601,0.496,1.007,0.203c0.407,0.293,0.763,0.067,1.007-0.203c0.208-0.232,0.334-0.497,0.334-0.497
			c0.476-5.765,1.833-10.855,3.173-16.157c0.972-3.847,1.934-7.806,2.546-12.216C201.404,214.079,201.667,210.321,201.545,206.116z"
			/>
		<g>
			<path opacity="0.1" fill="#999999" d="M216.281,201.727c0,0,4.99,15.412-12.751,25.724c-17.741,10.312-33.042-5.877-33.042-5.877
				s1.109,4.546,5.988,9.425c4.878,4.879,12.308,14.858,12.751,16.41c0,0,5.544-1.663,8.871,0c0,0,5.987-9.647,11.974-15.967
				C216.059,225.123,223.489,214.811,216.281,201.727z"/>
		</g>
		<g>
			<g>
				<path fill="#5B453B" d="M190.883,255.659c-0.07,0-0.128-0.056-0.129-0.126c-0.082-4.269-0.527-6.657-0.531-6.681
					c-0.013-0.07,0.033-0.138,0.103-0.151c0.071-0.013,0.138,0.033,0.152,0.103c0.004,0.024,0.453,2.43,0.535,6.724
					c0.001,0.071-0.055,0.131-0.127,0.132C190.884,255.659,190.884,255.659,190.883,255.659z"/>
				<path fill="#5B453B" d="M192.29,255.511c-0.003,0-0.005,0-0.007-0.001c-0.071-0.004-0.126-0.064-0.122-0.136
					c0.157-2.824-0.133-6.644-0.172-6.87c-0.017-0.063,0.017-0.13,0.08-0.153c0.067-0.025,0.142,0.009,0.166,0.076
					c0.039,0.104,0.343,4.084,0.184,6.963C192.416,255.458,192.358,255.511,192.29,255.511z"/>
				<path fill="#5B453B" d="M193.915,255.307c-0.072,0-0.13-0.058-0.13-0.13l-0.002-6.819c0-0.072,0.058-0.129,0.129-0.129l0,0
					c0.071,0,0.129,0.058,0.129,0.129l0.002,6.819C194.044,255.249,193.986,255.307,193.915,255.307L193.915,255.307z"/>
				<path fill="#5B453B" d="M195.497,255.323c-0.063,0-0.119-0.048-0.128-0.113c-0.338-2.639,0.188-6.744,0.261-6.863
					c0.037-0.061,0.117-0.08,0.178-0.043c0.055,0.033,0.075,0.101,0.052,0.158c-0.072,0.275-0.562,4.159-0.235,6.715
					c0.01,0.071-0.04,0.136-0.111,0.145C195.509,255.322,195.503,255.323,195.497,255.323z"/>
				<path fill="#5B453B" d="M196.958,255.294c-0.067,0-0.124-0.052-0.129-0.12c-0.296-4.196,0.219-6.716,0.224-6.741
					c0.015-0.07,0.082-0.116,0.153-0.1c0.069,0.014,0.114,0.083,0.1,0.153c-0.005,0.025-0.512,2.513-0.218,6.669
					c0.005,0.071-0.049,0.133-0.12,0.138C196.964,255.294,196.961,255.294,196.958,255.294z"/>
			</g>
			<path fill="#C5644F" d="M188.898,246.897c0,0,4.694-2.437,9.99-0.06c0,0-0.963,1.715-1.264,3.279c0,0-4.332-0.812-7.492,0.301
				C190.132,250.417,189.951,248.702,188.898,246.897z"/>
			<path fill="#AC4C38" d="M189.951,249.364c0,0,3.25-1.445,7.883-0.12l-0.27,1.023c0,0-4.193-0.942-7.432,0.15L189.951,249.364z"/>
			<path opacity="0.4" fill="#B81A35" d="M188.668,246.503c0,0,4.783-2.689,10.441,0.052l-0.24,0.334c0,0-4.741-2.459-9.951,0.041
				L188.668,246.503z"/>
			<path fill="#C5644F" d="M190.343,255.313c0,0,3.857-1.038,7.263-0.08c0,0,0.612,0.479-0.106,0.958c0,0-3.752-0.771-7.104,0.213
				C190.396,256.404,189.704,255.871,190.343,255.313z"/>
		</g>
	</g>
</g>
</svg>
