<!-- Generator: Adobe Illustrator 18.1.1, SVG Export Plug-In  -->
<svg version="1.1"
   xmlns="http://www.w3.org/2000/svg" xmlns:xlink="http://www.w3.org/1999/xlink" xmlns:a="http://ns.adobe.com/AdobeSVGViewerExtensions/3.0/"
   x="0px" y="0px" width="259.2px" height="367.369px" viewBox="0 0 259.2 367.369" enable-background="new 0 0 259.2 367.369"
   xml:space="preserve">
<defs>
</defs>
<g>
  <rect x="0" y="0" fill="#333333" width="259.2" height="58.298"/>
  <g>
    <rect x="16.521" y="34.657" fill="none" width="119.666" height="12.172"/>
    <text transform="matrix(1 0 0 1 16.5215 43.4655)" fill="#FFFFFF" font-family="'ProximaNovaCond-Regular'" font-size="13.2068">Nearest Rides</text>
  </g>
  <g>
    <rect x="212.629" y="36.146" fill="none" width="46.425" height="6.48"/>
    <text transform="matrix(1 0 0 1 212.6288 41.596)" fill="#E5E5E5" font-family="'ProximaNovaCond-Regular'" font-size="8.1708">Map View</text>
  </g>
  <g>
    
      <circle fill="none" stroke="#FFFFFF" stroke-width="0.5" stroke-linecap="round" stroke-linejoin="round" stroke-miterlimit="10" cx="201.059" cy="39.201" r="4.858"/>
    
      <path fill="none" stroke="#FFFFFF" stroke-width="0.5" stroke-linecap="round" stroke-linejoin="round" stroke-miterlimit="10" d="
      M199.776,35.499c-0.087-0.3-0.147-0.612-0.176-0.933"/>
    
      <path fill="none" stroke="#FFFFFF" stroke-width="0.5" stroke-linecap="round" stroke-linejoin="round" stroke-miterlimit="10" d="
      M203.463,38.892c-1.206-0.246-2.249-0.938-2.95-1.897"/>
    
      <path fill="none" stroke="#FFFFFF" stroke-width="0.5" stroke-linecap="round" stroke-linejoin="round" stroke-miterlimit="10" d="
      M205.917,38.749c-0.255,0.083-0.48,0.146-0.752,0.187"/>
    
      <path fill="none" stroke="#FFFFFF" stroke-width="0.5" stroke-linecap="round" stroke-linejoin="round" stroke-miterlimit="10" d="
      M202.521,41.813c-0.763,0.867-1.663,1.59-2.655,2.148"/>
    
      <path fill="none" stroke="#FFFFFF" stroke-width="0.5" stroke-linecap="round" stroke-linejoin="round" stroke-miterlimit="10" d="
      M203.94,39.724c-0.189,0.371-0.399,0.761-0.628,1.099"/>
    
      <path fill="none" stroke="#FFFFFF" stroke-width="0.5" stroke-linecap="round" stroke-linejoin="round" stroke-miterlimit="10" d="
      M204.983,36.336c-0.074,0.617-0.198,1.216-0.391,1.829"/>
    
      <path fill="none" stroke="#FFFFFF" stroke-width="0.5" stroke-linecap="round" stroke-linejoin="round" stroke-miterlimit="10" d="
      M197.592,41.143c-0.339-0.079-0.75-0.169-1.074-0.269"/>
    
      <path fill="none" stroke="#FFFFFF" stroke-width="0.5" stroke-linecap="round" stroke-linejoin="round" stroke-miterlimit="10" d="
      M200.406,41.528c-0.705-0.029-1.358-0.104-2.005-0.215"/>
    
      <path fill="none" stroke="#FFFFFF" stroke-width="0.5" stroke-linecap="round" stroke-linejoin="round" stroke-miterlimit="10" d="
      M202.317,41.498c-0.219,0.016-0.408,0.028-0.624,0.035"/>
    
      <path fill="none" stroke="#FFFFFF" stroke-width="0.5" stroke-linecap="round" stroke-linejoin="round" stroke-miterlimit="10" d="
      M205.54,40.961c-0.67,0.182-1.305,0.311-1.98,0.407"/>
    
      <path fill="none" stroke="#FFFFFF" stroke-width="0.5" stroke-linecap="round" stroke-linejoin="round" stroke-miterlimit="10" d="
      M199.22,36.166c-0.047-0.012-0.095-0.024-0.143-0.038c-0.459-0.128-0.884-0.318-1.269-0.558"/>
    
      <path fill="none" stroke="#FFFFFF" stroke-width="0.5" stroke-linecap="round" stroke-linejoin="round" stroke-miterlimit="10" d="
      M203.626,35.075c-0.742,0.651-1.707,1.091-2.7,1.203"/>
    
      <path fill="none" stroke="#FFFFFF" stroke-width="0.5" stroke-linecap="round" stroke-linejoin="round" stroke-miterlimit="10" d="
      M201.428,42.014c0.342,0.533,0.756,1.236,0.958,1.849"/>
    
      <path fill="none" stroke="#FFFFFF" stroke-width="0.5" stroke-linecap="round" stroke-linejoin="round" stroke-miterlimit="10" d="
      M199.175,39.779c0.489,0.305,1.077,0.824,1.484,1.228"/>
    
      <path fill="none" stroke="#FFFFFF" stroke-width="0.5" stroke-linecap="round" stroke-linejoin="round" stroke-miterlimit="10" d="
      M196.227,38.703c0.493,0.071,0.941,0.188,1.399,0.348"/>
    
      <path fill="none" stroke="#FFFFFF" stroke-width="0.5" stroke-linecap="round" stroke-linejoin="round" stroke-miterlimit="10" d="
      M197.82,41.705c-0.116,0.223-0.278,0.489-0.424,0.693"/>
    
      <path fill="none" stroke="#FFFFFF" stroke-width="0.5" stroke-linecap="round" stroke-linejoin="round" stroke-miterlimit="10" d="
      M198.301,40.232c-0.038,0.223-0.089,0.482-0.154,0.694"/>
    
      <path fill="none" stroke="#FFFFFF" stroke-width="0.5" stroke-linecap="round" stroke-linejoin="round" stroke-miterlimit="10" d="
      M197.267,36.148c0.533,0.68,0.9,1.494,1.041,2.384"/>
    
      <circle fill="none" stroke="#FFFFFF" stroke-width="0.5" stroke-linecap="round" stroke-linejoin="round" stroke-miterlimit="10" cx="200.082" cy="36.297" r="0.845"/>
    
      <circle fill="none" stroke="#FFFFFF" stroke-width="0.5" stroke-linecap="round" stroke-linejoin="round" stroke-miterlimit="10" cx="198.401" cy="39.386" r="0.845"/>
    
      <circle fill="none" stroke="#FFFFFF" stroke-width="0.5" stroke-linecap="round" stroke-linejoin="round" stroke-miterlimit="10" cx="197.979" cy="41.313" r="0.422"/>
    
      <circle fill="none" stroke="#FFFFFF" stroke-width="0.5" stroke-linecap="round" stroke-linejoin="round" stroke-miterlimit="10" cx="201.059" cy="41.498" r="0.634"/>
    
      <circle fill="none" stroke="#FFFFFF" stroke-width="0.5" stroke-linecap="round" stroke-linejoin="round" stroke-miterlimit="10" cx="202.927" cy="41.327" r="0.634"/>
    
      <circle fill="none" stroke="#FFFFFF" stroke-width="0.5" stroke-linecap="round" stroke-linejoin="round" stroke-miterlimit="10" cx="204.316" cy="38.963" r="0.845"/>
  </g>
  <g>
    <rect x="59.863" y="168.817" fill="none" width="50.595" height="17.369"/>
    <text transform="matrix(1 0 0 1 59.8626 174.82)"><tspan x="0" y="0" fill="#1A1A1A" font-family="'ProximaNovaCond-Regular'" font-size="9">Richtung</tspan><tspan x="0" y="10.8" fill="#1A1A1A" font-family="'ProximaNovaCond-Regular'" font-size="9">Kochstraße</tspan></text>
  </g>
  <path fill="#A3B239" d="M245.709,169.433h-23.826c-0.552,0-1,0.448-1,1v14.138c0,0.552,0.448,1,1,1h23.826c0.552,0,1-0.448,1-1
    v-14.138C246.709,169.881,246.261,169.433,245.709,169.433z"/>
  <g>
    <rect x="224.803" y="173.966" fill="none" width="18.441" height="6.961"/>
    <text transform="matrix(1 0 0 1 224.8024 180.2178)" fill="#FFFFFF" font-family="'ProximaNovaCond-Regular'" font-size="9.3732">good</text>
  </g>
  <g>
    <rect x="12.873" y="169.701" fill="none" width="29.524" height="19.385"/>
    
      <text transform="matrix(1 0 0 1 15.2451 184.6291)" fill="#1A1A1A" font-family="'ProximaNovaCond-Regular'" font-size="22.3842" letter-spacing="1">U6</text>
  </g>
  <g>
    <rect x="168.603" y="172.239" fill="none" width="64.818" height="12.309"/>
    <text transform="matrix(1 0 0 1 168.6043 181.053)" fill="#1A1A1A" font-family="'ProximaNovaCond-Regular'" font-size="13.2146">10 min</text>
  </g>
  <g>
    <rect x="122.05" y="172.239" fill="none" width="39.151" height="12.309"/>
    <text transform="matrix(1 0 0 1 122.0496 181.053)" fill="#1A1A1A" font-family="'ProximaNovaCond-Regular'" font-size="13.2146">189m</text>
  </g>
  <g>
    <rect x="59.863" y="259.522" fill="none" width="50.595" height="17.369"/>
    <text transform="matrix(1 0 0 1 59.8626 265.5252)"><tspan x="0" y="0" fill="#1A1A1A" font-family="'ProximaNovaCond-Regular'" font-size="9">Richtung</tspan><tspan x="0" y="10.8" fill="#1A1A1A" font-family="'ProximaNovaCond-Regular'" font-size="9">Kochstraße</tspan></text>
  </g>
  <path fill="#A3B239" d="M245.709,260.138h-23.826c-0.552,0-1,0.448-1,1v14.138c0,0.552,0.448,1,1,1h23.826c0.552,0,1-0.448,1-1
    v-14.138C246.709,260.586,246.261,260.138,245.709,260.138z"/>
  <g>
    <rect x="224.803" y="264.671" fill="none" width="18.441" height="6.961"/>
    <text transform="matrix(1 0 0 1 224.8024 270.923)" fill="#FFFFFF" font-family="'ProximaNovaCond-Regular'" font-size="9.3732">good</text>
  </g>
  <g>
    <rect x="12.873" y="260.406" fill="none" width="29.524" height="19.385"/>
    
      <text transform="matrix(1 0 0 1 15.2451 275.3344)" fill="#1A1A1A" font-family="'ProximaNovaCond-Regular'" font-size="22.3842" letter-spacing="1">U9</text>
  </g>
  <g>
    <rect x="168.603" y="262.944" fill="none" width="64.818" height="12.309"/>
    
      <text transform="matrix(1 0 0 1 168.6043 271.7582)" fill="#1A1A1A" font-family="'ProximaNovaCond-Regular'" font-size="13.2146">10 min</text>
  </g>
  <g>
    <rect x="122.05" y="262.944" fill="none" width="39.151" height="12.309"/>
    
      <text transform="matrix(1 0 0 1 122.0496 271.7582)" fill="#1A1A1A" font-family="'ProximaNovaCond-Regular'" font-size="13.2146">189m</text>
  </g>
  <rect x="0.8" y="107.993" fill="#F8F8F8" width="258.4" height="45.405"/>
  <g>
    <rect x="59.863" y="122.15" fill="none" width="53.67" height="17.369"/>
    <text transform="matrix(1 0 0 1 59.8626 128.1534)"><tspan x="0" y="0" fill="#1A1A1A" font-family="'ProximaNovaCond-Regular'" font-size="9">Richtung</tspan><tspan x="0" y="10.8" fill="#1A1A1A" font-family="'ProximaNovaCond-Regular'" font-size="9">Alexanderplatz</tspan></text>
  </g>
  <path fill="#FBB03B" d="M245.709,122.766h-23.826c-0.552,0-1,0.448-1,1v14.138c0,0.552,0.448,1,1,1h23.826c0.552,0,1-0.448,1-1
    v-14.138C246.709,123.214,246.261,122.766,245.709,122.766z"/>
  <g>
    <rect x="224.803" y="127.299" fill="none" width="18.441" height="6.961"/>
    <text transform="matrix(1 0 0 1 224.8024 133.5512)" fill="#FFFFFF" font-family="'ProximaNovaCond-Regular'" font-size="9.3732">norm</text>
  </g>
  <g>
    <rect x="12.873" y="123.034" fill="none" width="29.524" height="19.385"/>
    
      <text transform="matrix(1 0 0 1 15.3115 137.9625)" fill="#1A1A1A" font-family="'ProximaNovaCond-Regular'" font-size="22.3842" letter-spacing="1">U8</text>
  </g>
  <g>
    <rect x="168.603" y="125.572" fill="none" width="64.818" height="12.309"/>
    
      <text transform="matrix(1 0 0 1 168.6043 134.3864)" fill="#1A1A1A" font-family="'ProximaNovaCond-Regular'" font-size="13.2146">4 min</text>
  </g>
  <g>
    <rect x="122.05" y="125.572" fill="none" width="39.151" height="12.309"/>
    
      <text transform="matrix(1 0 0 1 122.0496 134.3864)" fill="#1A1A1A" font-family="'ProximaNovaCond-Regular'" font-size="13.2146">452m</text>
  </g>
  <g>
    <rect x="59.863" y="74.817" fill="none" width="53.67" height="17.369"/>
    <text transform="matrix(1 0 0 1 59.8626 80.82)"><tspan x="0" y="0" fill="#1A1A1A" font-family="'ProximaNovaCond-Regular'" font-size="9">Richtung</tspan><tspan x="0" y="10.8" fill="#1A1A1A" font-family="'ProximaNovaCond-Regular'" font-size="9">Alt-Tegel</tspan></text>
  </g>
  <path fill="#39B54A" d="M245.709,75.433h-23.826c-0.552,0-1,0.448-1,1v14.138c0,0.552,0.448,1,1,1h23.826c0.552,0,1-0.448,1-1
    V76.433C246.709,75.881,246.261,75.433,245.709,75.433z"/>
  <g>
    <rect x="224.803" y="79.966" fill="none" width="18.441" height="6.961"/>
    <text transform="matrix(1 0 0 1 224.8024 86.2178)" fill="#FFFFFF" font-family="'ProximaNovaCond-Regular'" font-size="9.3732">best</text>
  </g>
  <g>
    <rect x="12.873" y="75.701" fill="none" width="29.524" height="19.385"/>
    
      <text transform="matrix(1 0 0 1 15.2451 90.6291)" fill="#1A1A1A" font-family="'ProximaNovaCond-Regular'" font-size="22.3842" letter-spacing="1">U6</text>
  </g>
  <g>
    <rect x="168.603" y="78.239" fill="none" width="64.818" height="12.309"/>
    <text transform="matrix(1 0 0 1 168.6043 87.053)" fill="#1A1A1A" font-family="'ProximaNovaCond-Regular'" font-size="13.2146">2 min</text>
  </g>
  <g>
    <rect x="122.05" y="78.239" fill="none" width="39.151" height="12.309"/>
    <text transform="matrix(1 0 0 1 122.0496 87.053)" fill="#1A1A1A" font-family="'ProximaNovaCond-Regular'" font-size="13.2146">189m</text>
  </g>
  <rect x="0.8" y="201.993" fill="#F8F8F8" width="258.4" height="45.405"/>
  <g>
    <rect x="59.863" y="216.15" fill="none" width="50.595" height="17.369"/>
    <text transform="matrix(1 0 0 1 59.8626 222.1534)"><tspan x="0" y="0" fill="#1A1A1A" font-family="'ProximaNovaCond-Regular'" font-size="9">Richtung</tspan><tspan x="0" y="10.8" fill="#1A1A1A" font-family="'ProximaNovaCond-Regular'" font-size="9">Potsdam HbF</tspan></text>
  </g>
  <path fill="#39B54A" d="M245.709,216.766h-23.826c-0.552,0-1,0.448-1,1v14.138c0,0.552,0.448,1,1,1h23.826c0.552,0,1-0.448,1-1
    v-14.138C246.709,217.214,246.261,216.766,245.709,216.766z"/>
  <g>
    <rect x="224.803" y="221.299" fill="none" width="18.441" height="6.961"/>
    <text transform="matrix(1 0 0 1 224.8024 227.5512)" fill="#FFFFFF" font-family="'ProximaNovaCond-Regular'" font-size="9.3732">best</text>
  </g>
  <g>
    <rect x="12.873" y="217.034" fill="none" width="29.524" height="19.385"/>
    
      <text transform="matrix(1 0 0 1 16.3525 231.9625)" fill="#1A1A1A" font-family="'ProximaNovaCond-Regular'" font-size="22.3842" letter-spacing="1">S2</text>
  </g>
  <g>
    <rect x="168.603" y="219.572" fill="none" width="64.818" height="12.309"/>
    
      <text transform="matrix(1 0 0 1 168.6043 228.3864)" fill="#1A1A1A" font-family="'ProximaNovaCond-Regular'" font-size="13.2146">11 min</text>
  </g>
  <g>
    <rect x="122.05" y="219.572" fill="none" width="39.151" height="12.309"/>
    
      <text transform="matrix(1 0 0 1 122.0496 228.3864)" fill="#1A1A1A" font-family="'ProximaNovaCond-Regular'" font-size="13.2146">452m</text>
  </g>
  <g>
    <rect x="59.863" y="346.856" fill="none" width="50.595" height="17.369"/>
    <text transform="matrix(1 0 0 1 59.8626 352.8586)"><tspan x="0" y="0" fill="#1A1A1A" font-family="'ProximaNovaCond-Regular'" font-size="9">Richtung</tspan><tspan x="0" y="10.8" fill="#1A1A1A" font-family="'ProximaNovaCond-Regular'" font-size="9">Kochstraße</tspan></text>
  </g>
  <path fill="#A3B239" d="M245.709,347.471h-23.826c-0.552,0-1,0.448-1,1v14.138c0,0.552,0.448,1,1,1h23.826c0.552,0,1-0.448,1-1
    v-14.138C246.709,347.919,246.261,347.471,245.709,347.471z"/>
  <g>
    <rect x="224.803" y="352.004" fill="none" width="18.441" height="6.961"/>
    <text transform="matrix(1 0 0 1 224.8024 358.2563)" fill="#FFFFFF" font-family="'ProximaNovaCond-Regular'" font-size="9.3732">good</text>
  </g>
  <g>
    <rect x="12.873" y="347.739" fill="none" width="29.524" height="19.385"/>
    
      <text transform="matrix(1 0 0 1 17.2373 362.6677)" fill="#1A1A1A" font-family="'ProximaNovaCond-Regular'" font-size="22.3842" letter-spacing="1">U1</text>
  </g>
  <g>
    <rect x="168.603" y="350.277" fill="none" width="64.818" height="12.309"/>
    
      <text transform="matrix(1 0 0 1 168.6043 359.0916)" fill="#1A1A1A" font-family="'ProximaNovaCond-Regular'" font-size="13.2146">15 min</text>
  </g>
  <g>
    <rect x="122.05" y="350.277" fill="none" width="39.151" height="12.309"/>
    
      <text transform="matrix(1 0 0 1 122.0496 359.0916)" fill="#1A1A1A" font-family="'ProximaNovaCond-Regular'" font-size="13.2146">189m</text>
  </g>
  <rect x="0.8" y="289.326" fill="#F8F8F8" width="258.4" height="45.405"/>
  <g>
    <rect x="59.863" y="303.484" fill="none" width="50.595" height="17.369"/>
    <text transform="matrix(1 0 0 1 59.8626 309.4867)"><tspan x="0" y="0" fill="#1A1A1A" font-family="'ProximaNovaCond-Regular'" font-size="9">Richtung</tspan><tspan x="0" y="10.8" fill="#1A1A1A" font-family="'ProximaNovaCond-Regular'" font-size="9">Potsdam HbF</tspan></text>
  </g>
  <path fill="#39B54A" d="M245.709,304.099h-23.826c-0.552,0-1,0.448-1,1v14.138c0,0.552,0.448,1,1,1h23.826c0.552,0,1-0.448,1-1
    v-14.138C246.709,304.547,246.261,304.099,245.709,304.099z"/>
  <g>
    <rect x="224.803" y="308.633" fill="none" width="18.441" height="6.961"/>
    <text transform="matrix(1 0 0 1 224.8024 314.8845)" fill="#FFFFFF" font-family="'ProximaNovaCond-Regular'" font-size="9.3732">best</text>
  </g>
  <g>
    <rect x="12.873" y="304.367" fill="none" width="29.524" height="19.385"/>
    
      <text transform="matrix(1 0 0 1 16.3301 319.2958)" fill="#1A1A1A" font-family="'ProximaNovaCond-Regular'" font-size="22.3842" letter-spacing="1">S5</text>
  </g>
  <g>
    <rect x="168.603" y="306.905" fill="none" width="64.818" height="12.309"/>
    
      <text transform="matrix(1 0 0 1 168.6043 315.7197)" fill="#1A1A1A" font-family="'ProximaNovaCond-Regular'" font-size="13.2146">13 min</text>
  </g>
  <g>
    <rect x="122.05" y="306.905" fill="none" width="39.151" height="12.309"/>
    
      <text transform="matrix(1 0 0 1 122.0496 315.7197)" fill="#1A1A1A" font-family="'ProximaNovaCond-Regular'" font-size="13.2146">452m</text>
  </g>
</g>
</svg>
