<!-- Generator: Adobe Illustrator 18.1.1, SVG Export Plug-In  -->
<svg version="1.1"
   xmlns="http://www.w3.org/2000/svg" xmlns:xlink="http://www.w3.org/1999/xlink" xmlns:a="http://ns.adobe.com/AdobeSVGViewerExtensions/3.0/"
   x="0px" y="0px" width="277.913px" height="517.325px" viewBox="0 0 277.913 517.325" enable-background="new 0 0 277.913 517.325"
   xml:space="preserve">
<defs>
</defs>
<g>
  <rect x="8.013" y="0" fill="#47D2FC" width="259.2" height="239.934"/>
  <path fill="#66E81A" d="M277.913,241.215c0,0-10.75-16.89-58.414-5.89c-47.664,11-89.011-6-134.385-17
    C39.739,207.325,0,244.934,0,244.934l8.013-0.107v272.498h259V241.36L277.913,241.215z"/>
  <g opacity="0.75">
    <rect x="23.722" y="88.463" fill="none" width="224.867" height="51.244"/>
    <text transform="matrix(1 0 0 1 55.7142 97.7351)"><tspan x="0" y="0" font-family="'ProximaNovaCond-Regular'" font-size="13.9018">waypay will automatically start</tspan><tspan x="-20.394" y="16.682" font-family="'ProximaNovaCond-Regular'" font-size="13.9018"> if you enter a public transport vehicle.</tspan></text>
  </g>
  <g opacity="0.25">
    <path fill="none" stroke="#000000" stroke-linejoin="round" stroke-miterlimit="10" d="M237.997,24.511
      c0,4.831-5.189,6.441-8.051,6.441s-8.051-1.61-8.051-6.441s3.309-6.844,8.051-6.844S237.997,19.68,237.997,24.511z"/>
    
      <rect x="227.933" y="33.77" fill="none" stroke="#000000" stroke-linejoin="round" stroke-miterlimit="10" width="4.026" height="2.415"/>
    
      <line fill="none" stroke="#000000" stroke-linejoin="round" stroke-miterlimit="10" x1="234.191" y1="29.997" x2="231.958" y2="33.77"/>
    
      <line fill="none" stroke="#000000" stroke-linejoin="round" stroke-miterlimit="10" x1="225.7" y1="29.997" x2="227.933" y2="33.77"/>
    
      <line fill="none" stroke="#000000" stroke-linecap="round" stroke-linejoin="round" stroke-miterlimit="10" x1="226.725" y1="33.77" x2="233.166" y2="33.77"/>
    <path fill="none" stroke="#000000" stroke-linejoin="round" stroke-miterlimit="10" d="M234.307,24.242
      c0,3.705-1.953,6.71-4.361,6.71s-4.361-3.004-4.361-6.71c0-3.705,1.953-6.575,4.361-6.575S234.307,20.537,234.307,24.242z"/>
  </g>
  <g opacity="0.5">
    <path fill="none" stroke="#000000" stroke-linecap="round" stroke-linejoin="round" stroke-miterlimit="10" d="M196.112,179.014
      h11.763c5.774,0,10.456,4.681,10.456,10.456c0,1.444-1.17,2.614-2.614,2.614h-9.149c-5.881,0-0.832-7.596-7.993-8.49"/>
    <path fill="none" stroke="#000000" stroke-linecap="round" stroke-linejoin="round" stroke-miterlimit="10" d="M209.866,182.967
      c2.359,0.954,4.243,2.837,5.197,5.196h-4.544"/>
    <path fill="none" stroke="#000000" stroke-linecap="round" stroke-linejoin="round" stroke-miterlimit="10" d="M201.34,196.005
      c0,0.722,0.585,1.307,1.307,1.307h14.377c0.722,0,1.307-0.585,1.307-1.307"/>
    
      <line fill="none" stroke="#000000" stroke-linecap="round" stroke-linejoin="round" stroke-miterlimit="10" x1="207.875" y1="173.786" x2="214.41" y2="173.786"/>
    
      <line fill="none" stroke="#000000" stroke-linecap="round" stroke-linejoin="round" stroke-miterlimit="10" x1="196.139" y1="173.786" x2="202.62" y2="173.786"/>
    
      <line fill="none" stroke="#000000" stroke-linecap="round" stroke-linejoin="round" stroke-miterlimit="10" x1="205.261" y1="178.36" x2="205.261" y2="171.825"/>
    
      <line fill="none" stroke="#000000" stroke-linecap="round" stroke-linejoin="round" stroke-miterlimit="10" x1="192.191" y1="180.28" x2="192.191" y2="177.707"/>
    
      <line fill="none" stroke="#000000" stroke-linecap="round" stroke-linejoin="round" stroke-miterlimit="10" x1="192.191" y1="185.508" x2="192.191" y2="182.935"/>
    
      <line fill="none" stroke="#000000" stroke-linecap="round" stroke-linejoin="round" stroke-miterlimit="10" x1="190.803" y1="181.628" x2="188.243" y2="181.628"/>
    
      <line fill="none" stroke="#000000" stroke-linecap="round" stroke-linejoin="round" stroke-miterlimit="10" x1="196.057" y1="181.628" x2="193.525" y2="181.628"/>
    
      <line fill="none" stroke="#000000" stroke-linecap="round" stroke-linejoin="round" stroke-miterlimit="10" x1="215.064" y1="197.257" x2="212.94" y2="192.084"/>
    
      <line fill="none" stroke="#000000" stroke-linecap="round" stroke-linejoin="round" stroke-miterlimit="10" x1="204.608" y1="197.257" x2="206.732" y2="192.084"/>
  </g>
  <g opacity="0.5">
    <g>
      
        <ellipse fill="none" stroke="#000000" stroke-linejoin="round" stroke-miterlimit="10" cx="37.289" cy="151.465" rx="13.306" ry="9.283"/>
      
        <line fill="none" stroke="#000000" stroke-linecap="round" stroke-linejoin="round" stroke-miterlimit="10" x1="45.644" y1="152.084" x2="52.426" y2="152.084"/>
      <polyline fill="none" stroke="#000000" stroke-linejoin="round" stroke-miterlimit="10" points="43.069,143.102 44.406,139.707 
        51.832,139.707 49.406,147.625       "/>
      <polyline fill="none" stroke="#000000" stroke-linejoin="round" stroke-miterlimit="10" points="43.055,159.833 44.406,163.224 
        51.832,163.224 49.399,155.316       "/>
      <polyline fill="none" stroke="#000000" stroke-linejoin="round" stroke-miterlimit="10" points="28.934,158.691 28.934,163.224 
        36.36,163.224 36.36,160.748       "/>
    </g>
    
      <line fill="none" stroke="#000000" stroke-linecap="round" stroke-linejoin="round" stroke-miterlimit="10" x1="28.934" y1="161.367" x2="30.791" y2="161.367"/>
  </g>
  <g opacity="0.5">
    
      <circle fill="none" stroke="#000000" stroke-linecap="round" stroke-linejoin="round" stroke-miterlimit="10" cx="73.363" cy="293.603" r="1.744"/>
    
      <circle fill="none" stroke="#000000" stroke-linecap="round" stroke-linejoin="round" stroke-miterlimit="10" cx="82.958" cy="293.603" r="1.744"/>
    
      <line fill="none" stroke="#000000" stroke-linecap="round" stroke-linejoin="round" stroke-miterlimit="10" x1="75.108" y1="293.603" x2="81.213" y2="293.603"/>
    
      <line fill="none" stroke="#000000" stroke-linecap="round" stroke-linejoin="round" stroke-miterlimit="10" x1="69.002" y1="293.603" x2="71.619" y2="293.603"/>
    <path fill="none" stroke="#000000" stroke-linecap="round" stroke-linejoin="round" stroke-miterlimit="10" d="M84.702,293.603
      h3.489c0.232,0,0.454-0.092,0.617-0.256c0.164-0.164,0.255-0.386,0.255-0.617v-10.467c0-0.482-0.391-0.872-0.872-0.872H75.108
      c-0.482,0-0.872,0.39-0.872,0.872v6.106h-3.489c-0.482,0-0.872,0.39-0.872,0.872v4.361"/>
    <polyline fill="none" stroke="#000000" stroke-linecap="round" stroke-linejoin="round" stroke-miterlimit="10" points="
      75.98,286.625 75.98,284.881 76.852,284.881    "/>
    <polyline fill="none" stroke="#000000" stroke-linecap="round" stroke-linejoin="round" stroke-miterlimit="10" points="
      78.597,286.625 78.597,284.881 79.469,284.881    "/>
    <polyline fill="none" stroke="#000000" stroke-linecap="round" stroke-linejoin="round" stroke-miterlimit="10" points="
      81.213,286.625 81.213,284.881 82.086,284.881    "/>
    <polyline fill="none" stroke="#000000" stroke-linecap="round" stroke-linejoin="round" stroke-miterlimit="10" points="
      83.83,286.625 83.83,284.881 84.702,284.881    "/>
    <polyline fill="none" stroke="#000000" stroke-linecap="round" stroke-linejoin="round" stroke-miterlimit="10" points="
      86.447,286.625 86.447,284.881 87.319,284.881    "/>
    
      <line fill="none" stroke="#000000" stroke-linejoin="round" stroke-miterlimit="10" x1="75.544" y1="283.136" x2="77.288" y2="283.136"/>
    
      <line fill="none" stroke="#000000" stroke-linejoin="round" stroke-miterlimit="10" x1="85.138" y1="283.136" x2="86.883" y2="283.136"/>
    
      <line fill="none" stroke="#000000" stroke-linecap="round" stroke-linejoin="round" stroke-miterlimit="10" x1="69.874" y1="290.114" x2="89.064" y2="290.114"/>
  </g>
  <g opacity="0.5">
    
      <circle fill="none" stroke="#000000" stroke-linecap="round" stroke-linejoin="round" stroke-miterlimit="10" cx="219.548" cy="328.448" r="2.582"/>
    
      <line fill="none" stroke="#000000" stroke-linecap="round" stroke-linejoin="round" stroke-miterlimit="10" x1="198.894" y1="328.448" x2="195.021" y2="328.448"/>
    
      <circle fill="none" stroke="#000000" stroke-linecap="round" stroke-linejoin="round" stroke-miterlimit="10" cx="201.475" cy="328.448" r="2.582"/>
    
      <line fill="none" stroke="#000000" stroke-linecap="round" stroke-linejoin="round" stroke-miterlimit="10" x1="216.966" y1="328.448" x2="204.057" y2="328.448"/>
    <path fill="none" stroke="#000000" stroke-linecap="round" stroke-linejoin="round" stroke-miterlimit="10" d="M196.312,328.448
      c0,0,0.466-2.807,1.003-6.032c0.907-5.451,5.621-9.459,11.147-9.459c4.768,0,9.077,2.842,10.955,7.224l0.777,1.813
      c3.873,0,4.518,3.334,4.518,6.455h-2.582"/>
    <path fill="none" stroke="#000000" stroke-linecap="round" stroke-linejoin="round" stroke-miterlimit="10" d="M207.93,315.539
      c-3.129,0-5.868,2.582-7.1,5.164h7.1"/>
    <path fill="none" stroke="#000000" stroke-linecap="round" stroke-linejoin="round" stroke-miterlimit="10" d="M210.95,315.642
      c2.668,0.503,4.928,2.781,6.016,5.06h-5.809"/>
    
      <line fill="none" stroke="#000000" stroke-linecap="round" stroke-linejoin="round" stroke-miterlimit="10" x1="207.93" y1="315.539" x2="207.93" y2="325.866"/>
  </g>
  <g opacity="0.5">
    <g>
      
        <circle fill="none" stroke="#000000" stroke-linecap="round" stroke-linejoin="round" stroke-miterlimit="10" cx="61.867" cy="365.475" r="3.537"/>
      
        <line fill="none" stroke="#000000" stroke-linecap="round" stroke-linejoin="round" stroke-miterlimit="10" x1="84.859" y1="365.475" x2="93.702" y2="365.475"/>
      
        <circle fill="none" stroke="#000000" stroke-linecap="round" stroke-linejoin="round" stroke-miterlimit="10" cx="81.322" cy="365.475" r="3.537"/>
      
        <line fill="none" stroke="#000000" stroke-linecap="round" stroke-linejoin="round" stroke-miterlimit="10" x1="65.405" y1="365.475" x2="77.785" y2="365.475"/>
      
        <line fill="none" stroke="#000000" stroke-linecap="round" stroke-linejoin="round" stroke-miterlimit="10" x1="53.024" y1="365.475" x2="58.33" y2="365.475"/>
      <path fill="none" stroke="#000000" stroke-linecap="round" stroke-linejoin="round" stroke-miterlimit="10" d="M91.934,365.475
        v-10.612h-3.537c-1.039-4.157-4.775-7.074-9.061-7.074H66.289l-3.537,7.074h-7.959v10.612"/>
      <polyline fill="none" stroke="#000000" stroke-linecap="round" stroke-linejoin="round" stroke-miterlimit="10" points="
        67.173,354.864 68.942,351.326 70.71,351.326       "/>
      
        <line fill="none" stroke="#000000" stroke-linejoin="round" stroke-miterlimit="10" x1="67.173" y1="357.517" x2="67.173" y2="359.285"/>
      
        <line fill="none" stroke="#000000" stroke-linejoin="round" stroke-miterlimit="10" x1="63.636" y1="357.517" x2="63.636" y2="359.285"/>
      
        <line fill="none" stroke="#000000" stroke-linejoin="round" stroke-miterlimit="10" x1="60.099" y1="357.517" x2="60.099" y2="359.285"/>
      
        <line fill="none" stroke="#000000" stroke-linejoin="round" stroke-miterlimit="10" x1="70.71" y1="357.517" x2="70.71" y2="359.285"/>
      
        <line fill="none" stroke="#000000" stroke-linejoin="round" stroke-miterlimit="10" x1="74.248" y1="357.517" x2="74.248" y2="359.285"/>
      
        <line fill="none" stroke="#000000" stroke-linejoin="round" stroke-miterlimit="10" x1="77.785" y1="357.517" x2="77.785" y2="359.285"/>
      
        <line fill="none" stroke="#000000" stroke-linejoin="round" stroke-miterlimit="10" x1="81.322" y1="357.517" x2="81.322" y2="359.285"/>
      
        <line fill="none" stroke="#000000" stroke-linejoin="round" stroke-miterlimit="10" x1="84.859" y1="357.517" x2="84.859" y2="359.285"/>
      
        <line fill="none" stroke="#000000" stroke-linejoin="round" stroke-miterlimit="10" x1="88.396" y1="357.517" x2="88.396" y2="359.285"/>
    </g>
    <path fill="none" stroke="#000000" stroke-linecap="round" stroke-linejoin="round" stroke-miterlimit="10" d="M68.831,347.739
      c0,0.111,0.995-3.487,0.995-3.487h3.537l1.63,3.537"/>
  </g>
  <line opacity="0.5" fill="#7CD4F2" stroke="#000000" stroke-miterlimit="10" x1="65.012" y1="148.825" x2="86.012" y2="148.825"/>
  <line opacity="0.5" fill="#7CD4F2" stroke="#000000" stroke-miterlimit="10" x1="59.013" y1="155.825" x2="68.012" y2="155.825"/>
  <line opacity="0.5" fill="#7CD4F2" stroke="#000000" stroke-miterlimit="10" x1="69.012" y1="164.825" x2="75.012" y2="164.825"/>
  
    <line opacity="0.5" fill="#7CD4F2" stroke="#000000" stroke-miterlimit="10" x1="186.012" y1="190.825" x2="176.012" y2="190.825"/>
  
    <line opacity="0.5" fill="#7CD4F2" stroke="#000000" stroke-miterlimit="10" x1="175.012" y1="190.825" x2="169.012" y2="190.825"/>
  
    <line opacity="0.5" fill="#7CD4F2" stroke="#000000" stroke-miterlimit="10" x1="168.012" y1="190.825" x2="164.012" y2="190.825"/>
  
    <line opacity="0.5" fill="#7CD4F2" stroke="#000000" stroke-miterlimit="10" x1="179.012" y1="183.825" x2="159.012" y2="183.825"/>
  
    <line opacity="0.5" fill="#7CD4F2" stroke="#000000" stroke-miterlimit="10" x1="157.012" y1="183.825" x2="145.012" y2="183.825"/>
  
    <line opacity="0.5" fill="#7CD4F2" stroke="#000000" stroke-miterlimit="10" x1="189.012" y1="325.825" x2="177.012" y2="325.825"/>
  
    <line opacity="0.5" fill="#7CD4F2" stroke="#000000" stroke-miterlimit="10" x1="175.012" y1="325.825" x2="168.012" y2="325.825"/>
  
    <line opacity="0.5" fill="#7CD4F2" stroke="#000000" stroke-miterlimit="10" x1="167.012" y1="325.825" x2="162.012" y2="325.825"/>
  
    <line opacity="0.5" fill="#7CD4F2" stroke="#000000" stroke-miterlimit="10" x1="189.012" y1="319.825" x2="176.012" y2="319.825"/>
  
    <line opacity="0.5" fill="#7CD4F2" stroke="#000000" stroke-miterlimit="10" x1="175.012" y1="319.825" x2="167.012" y2="319.825"/>
  <line opacity="0.5" fill="#7CD4F2" stroke="#000000" stroke-miterlimit="10" x1="98.012" y1="357.825" x2="117.012" y2="357.825"/>
  
    <line opacity="0.5" fill="#7CD4F2" stroke="#000000" stroke-miterlimit="10" x1="120.012" y1="357.825" x2="130.012" y2="357.825"/>
  
    <line opacity="0.5" fill="#7CD4F2" stroke="#000000" stroke-miterlimit="10" x1="132.012" y1="357.825" x2="140.012" y2="357.825"/>
  <line opacity="0.5" fill="#7CD4F2" stroke="#000000" stroke-miterlimit="10" x1="98.012" y1="361.825" x2="118.012" y2="361.825"/>
  
    <line opacity="0.5" fill="#7CD4F2" stroke="#000000" stroke-miterlimit="10" x1="120.012" y1="361.825" x2="132.012" y2="361.825"/>
  <line opacity="0.5" fill="#7CD4F2" stroke="#000000" stroke-miterlimit="10" x1="98.012" y1="353.825" x2="104.012" y2="353.825"/>
  
    <line opacity="0.5" fill="#7CD4F2" stroke="#000000" stroke-miterlimit="10" x1="105.012" y1="353.825" x2="109.012" y2="353.825"/>
  <line opacity="0.5" fill="#7CD4F2" stroke="#000000" stroke-miterlimit="10" x1="97.012" y1="284.825" x2="103.012" y2="284.825"/>
  
    <line opacity="0.5" fill="#7CD4F2" stroke="#000000" stroke-miterlimit="10" x1="104.012" y1="284.825" x2="108.012" y2="284.825"/>
  
    <line opacity="0.5" fill="#7CD4F2" stroke="#000000" stroke-miterlimit="10" x1="108.012" y1="284.825" x2="111.012" y2="284.825"/>
  <line opacity="0.5" fill="#7CD4F2" stroke="#000000" stroke-miterlimit="10" x1="97.012" y1="290.825" x2="104.012" y2="290.825"/>
  
    <line opacity="0.5" fill="#7CD4F2" stroke="#000000" stroke-miterlimit="10" x1="104.012" y1="290.825" x2="108.012" y2="290.825"/>
  <g>
    <g opacity="0.1">
      <path fill="#FFFFFF" d="M172.543,56.121c0-1.866,1.182-3.451,2.835-4.061v-9.188H96.647v9.245
        c1.571,0.65,2.678,2.197,2.678,4.003c0,1.806-1.106,3.353-2.678,4.003v9.245h78.731v-9.188
        C173.724,59.572,172.543,57.986,172.543,56.121z"/>
    </g>
    <g>
      <path d="M176.008,69.999H96.017V59.703l0.389-0.161c1.39-0.575,2.289-1.918,2.289-3.421s-0.898-2.846-2.289-3.421l-0.389-0.161
        V42.242h79.991v10.257l-0.412,0.152c-1.449,0.534-2.423,1.929-2.423,3.469s0.974,2.935,2.423,3.469l0.412,0.152V69.999z
         M97.277,68.739h77.471v-8.14c-1.713-0.815-2.835-2.562-2.835-4.478s1.123-3.664,2.835-4.478v-8.14H97.277v8.214
        c1.64,0.849,2.678,2.534,2.678,4.405s-1.038,3.556-2.678,4.405V68.739z"/>
    </g>
    <g>
      <path d="M106.069,51.13h1.634l2.281,7.031h0.136l2.264-7.031h1.294l2.332,7.031h0.136l2.162-7.031h1.583l-2.86,8.512h-2.06
        l-1.907-5.856h-0.102l-1.924,5.856h-2.111L106.069,51.13z"/>
      <path d="M120.59,51.709c1.277-0.528,2.213-0.749,3.626-0.749c2.502,0,3.677,0.885,3.677,2.962v3.558
        c0,0.817,0.204,1.038,1.055,1.038v1.124c-0.374,0.119-0.681,0.17-1.123,0.17c-0.698,0-1.123-0.528-1.192-1.396
        c-0.783,0.936-1.941,1.396-3.507,1.396c-1.992,0-3.047-1.004-3.047-2.605c0-0.766,0.221-1.362,0.8-2.026
        c1.532-0.477,3.098-0.681,5.482-0.732v-0.477c0-1.175-0.545-1.702-2.213-1.702c-1.072,0-2.111,0.221-3.217,0.698L120.59,51.709z
         M126.36,55.59c-1.975,0.034-3.234,0.204-4.341,0.511c-0.238,0.29-0.34,0.613-0.34,1.022c0,0.919,0.613,1.396,1.668,1.396
        c1.123,0,2.077-0.306,3.013-1.123V55.59z"/>
      <path d="M130.429,51.13l3.286,6.843h0.068l2.536-6.843h1.702l-4.188,10.146c-0.46,1.09-1.515,1.754-2.673,1.754
        c-0.426,0-0.698-0.068-1.123-0.221l0.238-1.226c0.221,0.051,0.46,0.085,0.664,0.085c0.8,0,1.379-0.272,1.753-1.192l0.306-0.766
        l-4.324-8.58H130.429z"/>
      <path d="M138.821,51.453c1.311-0.323,2.366-0.494,3.864-0.494c3.047,0,4.716,1.668,4.716,4.443c0,2.57-1.43,4.409-4.358,4.409
        c-1.157,0-1.873-0.204-2.639-0.8v4.545h-1.583V51.453z M140.404,57.548c0.817,0.698,1.617,0.936,2.639,0.936
        c1.719,0,2.775-1.141,2.775-3.081c0-2.111-1.175-3.201-3.132-3.201c-1.038,0-1.549,0.085-2.281,0.323V57.548z"/>
      <path d="M148.524,51.709c1.277-0.528,2.213-0.749,3.626-0.749c2.502,0,3.677,0.885,3.677,2.962v3.558
        c0,0.817,0.204,1.038,1.056,1.038v1.124c-0.375,0.119-0.681,0.17-1.124,0.17c-0.698,0-1.124-0.528-1.192-1.396
        c-0.783,0.936-1.941,1.396-3.507,1.396c-1.992,0-3.047-1.004-3.047-2.605c0-0.766,0.221-1.362,0.8-2.026
        c1.532-0.477,3.098-0.681,5.482-0.732v-0.477c0-1.175-0.545-1.702-2.213-1.702c-1.073,0-2.111,0.221-3.217,0.698L148.524,51.709z
         M154.296,55.59c-1.975,0.034-3.235,0.204-4.341,0.511c-0.238,0.29-0.341,0.613-0.341,1.022c0,0.919,0.613,1.396,1.668,1.396
        c1.124,0,2.077-0.306,3.013-1.123V55.59z"/>
      <path d="M158.364,51.13l3.285,6.843h0.068l2.537-6.843h1.702l-4.188,10.146c-0.46,1.09-1.515,1.754-2.673,1.754
        c-0.425,0-0.698-0.068-1.124-0.221l0.238-1.226c0.221,0.051,0.46,0.085,0.664,0.085c0.8,0,1.379-0.272,1.754-1.192l0.306-0.766
        l-4.324-8.58H158.364z"/>
    </g>
  </g>
</g>
</svg>
