<!-- Generator: Adobe Illustrator 18.1.1, SVG Export Plug-In  -->
<svg version="1.1"
   xmlns="http://www.w3.org/2000/svg" xmlns:xlink="http://www.w3.org/1999/xlink" xmlns:a="http://ns.adobe.com/AdobeSVGViewerExtensions/3.0/"
   x="0px" y="0px" width="258.4px" height="319.444px" viewBox="0 0 258.4 319.444" enable-background="new 0 0 258.4 319.444"
   xml:space="preserve">
<defs>
</defs>
<g>
  <g>
    <rect x="18.757" y="49.534" fill="none" width="217.172" height="36.472"/>
    <text transform="matrix(1 0 0 1 22.1106 58.194)"><tspan x="0" y="0" fill="#1A1A1A" font-family="'ProximaNovaCond-Regular'" font-size="12.9839">You are currently not on a public transport.</tspan><tspan x="14.632" y="15.581" fill="#1A1A1A" font-family="'ProximaNovaCond-Regular'" font-size="12.9839">Here are the nearest Rides to hop on</tspan></text>
  </g>
  <g>
    <rect x="59.063" y="208.226" fill="none" width="50.595" height="17.369"/>
    <text transform="matrix(1 0 0 1 59.0626 214.2285)"><tspan x="0" y="0" fill="#1A1A1A" font-family="'ProximaNovaCond-Regular'" font-size="9">Richtung</tspan><tspan x="0" y="10.8" fill="#1A1A1A" font-family="'ProximaNovaCond-Regular'" font-size="9">Kochstraße</tspan></text>
  </g>
  <path fill="#A3B239" d="M244.909,208.841h-23.826c-0.552,0-1,0.448-1,1v14.138c0,0.552,0.448,1,1,1h23.826c0.552,0,1-0.448,1-1
    v-14.138C245.909,209.289,245.461,208.841,244.909,208.841z"/>
  <g>
    <rect x="224.003" y="213.374" fill="none" width="18.441" height="6.961"/>
    <text transform="matrix(1 0 0 1 224.0024 219.6263)" fill="#FFFFFF" font-family="'ProximaNovaCond-Regular'" font-size="9.3732">good</text>
  </g>
  <g>
    <rect x="12.073" y="209.109" fill="none" width="29.524" height="19.385"/>
    
      <text transform="matrix(1 0 0 1 14.4451 224.0376)" fill="#1A1A1A" font-family="'ProximaNovaCond-Regular'" font-size="22.3842" letter-spacing="1">U6</text>
  </g>
  <g>
    <rect x="167.803" y="211.647" fill="none" width="64.818" height="12.309"/>
    
      <text transform="matrix(1 0 0 1 167.8042 220.4615)" fill="#1A1A1A" font-family="'ProximaNovaCond-Regular'" font-size="13.2146">10 min</text>
  </g>
  <g>
    <rect x="121.25" y="211.647" fill="none" width="39.151" height="12.309"/>
    
      <text transform="matrix(1 0 0 1 121.2495 220.4615)" fill="#1A1A1A" font-family="'ProximaNovaCond-Regular'" font-size="13.2146">189m</text>
  </g>
  <g>
    <rect x="59.063" y="298.931" fill="none" width="50.595" height="17.369"/>
    <text transform="matrix(1 0 0 1 59.0626 304.9337)"><tspan x="0" y="0" fill="#1A1A1A" font-family="'ProximaNovaCond-Regular'" font-size="9">Richtung</tspan><tspan x="0" y="10.8" fill="#1A1A1A" font-family="'ProximaNovaCond-Regular'" font-size="9">Kochstraße</tspan></text>
  </g>
  <path fill="#A3B239" d="M244.909,299.546h-23.826c-0.552,0-1,0.448-1,1v14.138c0,0.552,0.448,1,1,1h23.826c0.552,0,1-0.448,1-1
    v-14.138C245.909,299.994,245.461,299.546,244.909,299.546z"/>
  <g>
    <rect x="224.003" y="304.079" fill="none" width="18.441" height="6.961"/>
    <text transform="matrix(1 0 0 1 224.0024 310.3315)" fill="#FFFFFF" font-family="'ProximaNovaCond-Regular'" font-size="9.3732">good</text>
  </g>
  <g>
    <rect x="12.073" y="299.814" fill="none" width="29.524" height="19.385"/>
    
      <text transform="matrix(1 0 0 1 14.4451 314.7428)" fill="#1A1A1A" font-family="'ProximaNovaCond-Regular'" font-size="22.3842" letter-spacing="1">U6</text>
  </g>
  <g>
    <rect x="167.803" y="302.352" fill="none" width="64.818" height="12.309"/>
    
      <text transform="matrix(1 0 0 1 167.8042 311.1667)" fill="#1A1A1A" font-family="'ProximaNovaCond-Regular'" font-size="13.2146">10 min</text>
  </g>
  <g>
    <rect x="121.25" y="302.352" fill="none" width="39.151" height="12.309"/>
    
      <text transform="matrix(1 0 0 1 121.2495 311.1667)" fill="#1A1A1A" font-family="'ProximaNovaCond-Regular'" font-size="13.2146">189m</text>
  </g>
  <rect x="0" y="147.401" fill="#F8F8F8" width="258.4" height="45.405"/>
  <g>
    <rect x="59.063" y="161.559" fill="none" width="53.67" height="17.369"/>
    <text transform="matrix(1 0 0 1 59.0626 167.5618)"><tspan x="0" y="0" fill="#1A1A1A" font-family="'ProximaNovaCond-Regular'" font-size="9">Richtung</tspan><tspan x="0" y="10.8" fill="#1A1A1A" font-family="'ProximaNovaCond-Regular'" font-size="9">Alexanderplatz</tspan></text>
  </g>
  <path fill="#FBB03B" d="M244.909,162.175h-23.826c-0.552,0-1,0.448-1,1v14.138c0,0.552,0.448,1,1,1h23.826c0.552,0,1-0.448,1-1
    v-14.138C245.909,162.622,245.461,162.175,244.909,162.175z"/>
  <g>
    <rect x="224.003" y="166.708" fill="none" width="18.441" height="6.961"/>
    <text transform="matrix(1 0 0 1 224.0024 172.9596)" fill="#FFFFFF" font-family="'ProximaNovaCond-Regular'" font-size="9.3732">norm</text>
  </g>
  <g>
    <rect x="12.073" y="162.442" fill="none" width="29.524" height="19.385"/>
    
      <text transform="matrix(1 0 0 1 14.5115 177.3709)" fill="#1A1A1A" font-family="'ProximaNovaCond-Regular'" font-size="22.3842" letter-spacing="1">U8</text>
  </g>
  <g>
    <rect x="167.803" y="164.98" fill="none" width="64.818" height="12.309"/>
    
      <text transform="matrix(1 0 0 1 167.8042 173.7948)" fill="#1A1A1A" font-family="'ProximaNovaCond-Regular'" font-size="13.2146">4 min</text>
  </g>
  <g>
    <rect x="121.25" y="164.98" fill="none" width="39.151" height="12.309"/>
    
      <text transform="matrix(1 0 0 1 121.2495 173.7948)" fill="#1A1A1A" font-family="'ProximaNovaCond-Regular'" font-size="13.2146">452m</text>
  </g>
  <g>
    <rect x="59.063" y="114.226" fill="none" width="53.67" height="17.369"/>
    <text transform="matrix(1 0 0 1 59.0626 120.2285)"><tspan x="0" y="0" fill="#1A1A1A" font-family="'ProximaNovaCond-Regular'" font-size="9">Richtung</tspan><tspan x="0" y="10.8" fill="#1A1A1A" font-family="'ProximaNovaCond-Regular'" font-size="9">Alt-Tegel</tspan></text>
  </g>
  <path fill="#39B54A" d="M244.909,114.841h-23.826c-0.552,0-1,0.448-1,1v14.138c0,0.552,0.448,1,1,1h23.826c0.552,0,1-0.448,1-1
    v-14.138C245.909,115.289,245.461,114.841,244.909,114.841z"/>
  <g>
    <rect x="224.003" y="119.374" fill="none" width="18.441" height="6.961"/>
    <text transform="matrix(1 0 0 1 224.0024 125.6263)" fill="#FFFFFF" font-family="'ProximaNovaCond-Regular'" font-size="9.3732">best</text>
  </g>
  <g>
    <rect x="12.073" y="115.109" fill="none" width="29.524" height="19.385"/>
    
      <text transform="matrix(1 0 0 1 14.4451 130.0376)" fill="#1A1A1A" font-family="'ProximaNovaCond-Regular'" font-size="22.3842" letter-spacing="1">U6</text>
  </g>
  <g>
    <rect x="167.803" y="117.647" fill="none" width="64.818" height="12.309"/>
    
      <text transform="matrix(1 0 0 1 167.8042 126.4615)" fill="#1A1A1A" font-family="'ProximaNovaCond-Regular'" font-size="13.2146">2 min</text>
  </g>
  <g>
    <rect x="121.25" y="117.647" fill="none" width="39.151" height="12.309"/>
    
      <text transform="matrix(1 0 0 1 121.2495 126.4615)" fill="#1A1A1A" font-family="'ProximaNovaCond-Regular'" font-size="13.2146">189m</text>
  </g>
  <rect x="0" y="241.401" fill="#F8F8F8" width="258.4" height="45.405"/>
  <g>
    <rect x="59.063" y="255.559" fill="none" width="50.595" height="17.369"/>
    <text transform="matrix(1 0 0 1 59.0626 261.5618)"><tspan x="0" y="0" fill="#1A1A1A" font-family="'ProximaNovaCond-Regular'" font-size="9">Richtung</tspan><tspan x="0" y="10.8" fill="#1A1A1A" font-family="'ProximaNovaCond-Regular'" font-size="9">Potsdam HbF</tspan></text>
  </g>
  <path fill="#39B54A" d="M244.909,256.175h-23.826c-0.552,0-1,0.448-1,1v14.138c0,0.552,0.448,1,1,1h23.826c0.552,0,1-0.448,1-1
    v-14.138C245.909,256.622,245.461,256.175,244.909,256.175z"/>
  <g>
    <rect x="224.003" y="260.708" fill="none" width="18.441" height="6.961"/>
    <text transform="matrix(1 0 0 1 224.0024 266.9596)" fill="#FFFFFF" font-family="'ProximaNovaCond-Regular'" font-size="9.3732">best</text>
  </g>
  <g>
    <rect x="12.073" y="256.442" fill="none" width="29.524" height="19.385"/>
    
      <text transform="matrix(1 0 0 1 15.5525 271.3709)" fill="#1A1A1A" font-family="'ProximaNovaCond-Regular'" font-size="22.3842" letter-spacing="1">S2</text>
  </g>
  <g>
    <rect x="167.803" y="258.98" fill="none" width="64.818" height="12.309"/>
    
      <text transform="matrix(1 0 0 1 167.8042 267.7948)" fill="#1A1A1A" font-family="'ProximaNovaCond-Regular'" font-size="13.2146">11 min</text>
  </g>
  <g>
    <rect x="121.25" y="258.98" fill="none" width="39.151" height="12.309"/>
    
      <text transform="matrix(1 0 0 1 121.2495 267.7948)" fill="#1A1A1A" font-family="'ProximaNovaCond-Regular'" font-size="13.2146">452m</text>
  </g>
  <g>
    <g opacity="0.1">
      <path fill="#FFFFFF" d="M165.33,13.878c0-1.866,1.182-3.451,2.835-4.061V0.63H89.434v9.245c1.571,0.65,2.678,2.197,2.678,4.003
        c0,1.806-1.106,3.353-2.678,4.003v9.245h78.731v-9.188C166.512,17.329,165.33,15.744,165.33,13.878z"/>
    </g>
    <g>
      <path d="M168.796,27.757H88.804V17.46l0.389-0.161c1.39-0.575,2.289-1.918,2.289-3.421s-0.898-2.846-2.289-3.421l-0.389-0.161V0
        h79.991v10.257l-0.412,0.152c-1.449,0.534-2.423,1.929-2.423,3.469s0.974,2.935,2.423,3.469l0.412,0.152V27.757z M90.065,26.497
        h77.471v-8.14c-1.713-0.815-2.835-2.562-2.835-4.478s1.123-3.664,2.835-4.478V1.26H90.065v8.214
        c1.64,0.849,2.678,2.534,2.678,4.405s-1.038,3.556-2.678,4.405V26.497z"/>
    </g>
    <g>
      <path d="M98.856,8.888h1.634l2.281,7.031h0.136l2.264-7.031h1.294l2.332,7.031h0.136l2.162-7.031h1.583l-2.86,8.512h-2.06
        l-1.907-5.856h-0.102l-1.924,5.856h-2.111L98.856,8.888z"/>
      <path d="M113.377,9.466c1.277-0.528,2.213-0.749,3.626-0.749c2.502,0,3.677,0.885,3.677,2.962v3.558
        c0,0.817,0.204,1.038,1.055,1.038v1.124c-0.374,0.119-0.681,0.17-1.123,0.17c-0.698,0-1.123-0.528-1.192-1.396
        c-0.783,0.936-1.941,1.396-3.507,1.396c-1.992,0-3.047-1.004-3.047-2.605c0-0.766,0.221-1.362,0.8-2.026
        c1.532-0.477,3.098-0.681,5.482-0.732V11.73c0-1.175-0.545-1.702-2.213-1.702c-1.072,0-2.111,0.221-3.217,0.698L113.377,9.466z
         M119.148,13.348c-1.975,0.034-3.234,0.204-4.341,0.511c-0.238,0.29-0.34,0.613-0.34,1.022c0,0.919,0.613,1.396,1.668,1.396
        c1.123,0,2.077-0.306,3.013-1.123V13.348z"/>
      <path d="M123.216,8.888l3.286,6.843h0.068l2.536-6.843h1.702l-4.188,10.146c-0.46,1.09-1.515,1.754-2.673,1.754
        c-0.426,0-0.698-0.068-1.123-0.221l0.238-1.226c0.221,0.051,0.46,0.085,0.664,0.085c0.8,0,1.379-0.272,1.753-1.192l0.306-0.766
        l-4.324-8.58H123.216z"/>
      <path d="M131.609,9.211c1.311-0.323,2.366-0.494,3.864-0.494c3.047,0,4.716,1.668,4.716,4.443c0,2.57-1.43,4.409-4.358,4.409
        c-1.157,0-1.873-0.204-2.639-0.8v4.545h-1.583V9.211z M133.192,15.305c0.817,0.698,1.617,0.936,2.639,0.936
        c1.719,0,2.775-1.141,2.775-3.081c0-2.111-1.175-3.201-3.132-3.201c-1.038,0-1.549,0.085-2.281,0.323V15.305z"/>
      <path d="M141.312,9.466c1.277-0.528,2.213-0.749,3.626-0.749c2.502,0,3.677,0.885,3.677,2.962v3.558
        c0,0.817,0.204,1.038,1.056,1.038v1.124c-0.375,0.119-0.681,0.17-1.124,0.17c-0.698,0-1.124-0.528-1.192-1.396
        c-0.783,0.936-1.941,1.396-3.507,1.396c-1.992,0-3.047-1.004-3.047-2.605c0-0.766,0.221-1.362,0.8-2.026
        c1.532-0.477,3.098-0.681,5.482-0.732V11.73c0-1.175-0.545-1.702-2.213-1.702c-1.073,0-2.111,0.221-3.217,0.698L141.312,9.466z
         M147.083,13.348c-1.975,0.034-3.235,0.204-4.341,0.511c-0.238,0.29-0.341,0.613-0.341,1.022c0,0.919,0.613,1.396,1.668,1.396
        c1.124,0,2.077-0.306,3.013-1.123V13.348z"/>
      <path d="M151.151,8.888l3.285,6.843h0.068l2.537-6.843h1.702l-4.188,10.146c-0.46,1.09-1.515,1.754-2.673,1.754
        c-0.425,0-0.698-0.068-1.124-0.221l0.238-1.226c0.221,0.051,0.46,0.085,0.664,0.085c0.8,0,1.379-0.272,1.754-1.192l0.306-0.766
        l-4.324-8.58H151.151z"/>
    </g>
  </g>
</g>
</svg>
