<!-- Generator: Adobe Illustrator 18.1.1, SVG Export Plug-In  -->
<svg version="1.1"
   xmlns="http://www.w3.org/2000/svg" xmlns:xlink="http://www.w3.org/1999/xlink" xmlns:a="http://ns.adobe.com/AdobeSVGViewerExtensions/3.0/"
   x="0px" y="0px" width="259.2px" height="431.655px" viewBox="0 0 259.2 431.655" enable-background="new 0 0 259.2 431.655"
   xml:space="preserve">
<defs>
</defs>
<g>
  <rect x="0" y="0" fill="#66E81A" width="259.2" height="431.655"/>
  <g opacity="0.75">
    <rect x="29.3" y="218.164" fill="none" width="197.686" height="41.234"/>
    <text transform="matrix(1 0 0 1 89.3312 230.4303)"><tspan x="0" y="0" font-family="'ProximaNovaCond-Regular'" font-size="18.3896">Checked in</tspan><tspan x="-12.982" y="22.067" font-family="'ProximaNovaCond-Regular'" font-size="18.3896">U6 to Neukölln</tspan></text>
  </g>
  <g>
    <g opacity="0.1">
      <path fill="#FFFFFF" d="M151.51,36.165c0-1.201,0.76-2.221,1.825-2.613v-5.913h-50.67v5.95c1.011,0.418,1.723,1.414,1.723,2.576
        c0,1.163-0.712,2.158-1.723,2.576v5.95h50.67v-5.913C152.271,38.386,151.51,37.366,151.51,36.165z"/>
    </g>
    <g>
      <path d="M153.741,45.097h-51.481V38.47l0.25-0.104c0.895-0.37,1.473-1.235,1.473-2.202c0-0.967-0.578-1.832-1.473-2.202
        l-0.25-0.104v-6.627h51.481v6.601l-0.265,0.098c-0.933,0.344-1.559,1.241-1.559,2.233s0.627,1.889,1.559,2.233l0.265,0.098
        V45.097z M103.07,44.286h49.859v-5.239c-1.102-0.524-1.825-1.649-1.825-2.882c0-1.233,0.723-2.358,1.825-2.882v-5.239H103.07
        v5.286c1.055,0.546,1.723,1.631,1.723,2.835c0,1.204-0.668,2.289-1.723,2.835V44.286z"/>
    </g>
    <g>
      <path d="M108.728,32.953h1.052l1.468,4.525h0.088l1.457-4.525h0.833l1.501,4.525h0.088l1.391-4.525h1.019l-1.841,5.478h-1.326
        l-1.227-3.769h-0.066l-1.238,3.769h-1.359L108.728,32.953z"/>
      <path d="M118.074,33.325c0.822-0.34,1.424-0.482,2.334-0.482c1.611,0,2.367,0.57,2.367,1.906v2.29
        c0,0.526,0.131,0.668,0.679,0.668v0.723c-0.241,0.077-0.438,0.11-0.723,0.11c-0.449,0-0.723-0.34-0.767-0.898
        c-0.504,0.603-1.249,0.898-2.257,0.898c-1.282,0-1.961-0.646-1.961-1.676c0-0.493,0.142-0.876,0.515-1.304
        c0.986-0.307,1.994-0.438,3.528-0.471v-0.307c0-0.756-0.351-1.096-1.424-1.096c-0.69,0-1.359,0.142-2.071,0.449L118.074,33.325z
         M121.788,35.824c-1.271,0.022-2.082,0.131-2.794,0.329c-0.153,0.186-0.219,0.395-0.219,0.657c0,0.592,0.394,0.898,1.074,0.898
        c0.723,0,1.337-0.197,1.939-0.723V35.824z"/>
      <path d="M124.406,32.953l2.115,4.404h0.044l1.632-4.404h1.096l-2.695,6.53c-0.296,0.701-0.975,1.129-1.72,1.129
        c-0.274,0-0.449-0.044-0.723-0.142l0.153-0.789c0.142,0.033,0.296,0.055,0.427,0.055c0.515,0,0.887-0.175,1.128-0.767
        l0.197-0.493l-2.783-5.522H124.406z"/>
      <path d="M129.808,33.161c0.844-0.208,1.523-0.318,2.487-0.318c1.961,0,3.035,1.074,3.035,2.86c0,1.654-0.92,2.838-2.805,2.838
        c-0.745,0-1.205-0.132-1.698-0.515v2.925h-1.019V33.161z M130.826,37.083c0.526,0.449,1.041,0.603,1.698,0.603
        c1.107,0,1.786-0.734,1.786-1.983c0-1.359-0.756-2.06-2.016-2.06c-0.668,0-0.997,0.055-1.468,0.208V37.083z"/>
      <path d="M136.052,33.325c0.822-0.34,1.424-0.482,2.334-0.482c1.611,0,2.367,0.57,2.367,1.906v2.29
        c0,0.526,0.132,0.668,0.679,0.668v0.723c-0.241,0.077-0.438,0.11-0.723,0.11c-0.449,0-0.723-0.34-0.767-0.898
        c-0.504,0.603-1.249,0.898-2.257,0.898c-1.282,0-1.961-0.646-1.961-1.676c0-0.493,0.142-0.876,0.515-1.304
        c0.986-0.307,1.994-0.438,3.528-0.471v-0.307c0-0.756-0.351-1.096-1.424-1.096c-0.69,0-1.359,0.142-2.071,0.449L136.052,33.325z
         M139.767,35.824c-1.271,0.022-2.082,0.131-2.794,0.329c-0.153,0.186-0.219,0.395-0.219,0.657c0,0.592,0.395,0.898,1.074,0.898
        c0.723,0,1.337-0.197,1.939-0.723V35.824z"/>
      <path d="M142.385,32.953l2.114,4.404h0.044l1.632-4.404h1.096l-2.695,6.53c-0.296,0.701-0.975,1.129-1.72,1.129
        c-0.274,0-0.449-0.044-0.723-0.142l0.153-0.789c0.142,0.033,0.296,0.055,0.427,0.055c0.515,0,0.887-0.175,1.129-0.767
        l0.197-0.493l-2.783-5.522H142.385z"/>
    </g>
  </g>
  <g>
    <polyline fill="none" stroke="#000000" stroke-linecap="round" stroke-linejoin="round" stroke-miterlimit="10" points="
      143.166,161.422 121.34,191.847 112.741,183.249    "/>
  </g>
</g>
</svg>
