<!-- Generator: Adobe Illustrator 18.1.1, SVG Export Plug-In  -->
<svg version="1.1"
   xmlns="http://www.w3.org/2000/svg" xmlns:xlink="http://www.w3.org/1999/xlink" xmlns:a="http://ns.adobe.com/AdobeSVGViewerExtensions/3.0/"
   x="0px" y="0px" width="259.2px" height="387.134px" viewBox="0 0 259.2 387.134" enable-background="new 0 0 259.2 387.134"
   xml:space="preserve">
<defs>
</defs>
<g>
  <path fill="#F8F8F8" d="M246.267,91.956H12.933c-0.552,0-1,0.448-1,1v41.242c0,0.552,0.448,1,1,1h233.333c0.552,0,1-0.448,1-1
    V92.956C247.267,92.403,246.819,91.956,246.267,91.956z"/>
  <rect x="0" y="0" fill="#333333" width="259.2" height="58.298"/>
  <g>
    <rect x="181.42" y="106.204" fill="none" width="55.531" height="17.276"/>
    <text transform="matrix(1 0 0 1 183.9794 122.097)"><tspan x="0" y="0" fill="#1A1A1A" font-family="'ProximaNovaCond-Regular'" font-size="22.3842" letter-spacing="1">1,30</tspan><tspan x="38.321" y="0" fill="#1A1A1A" font-family="'MyriadPro-Regular'" font-size="22.3842" letter-spacing="1">Ξ</tspan></text>
  </g>
  <g>
    <rect x="174.448" y="26.84" fill="none" width="70.51" height="19.989"/>
    
      <text transform="matrix(1 0 0 1 187.6885 43.4837)" fill="#FFFFFF" font-family="'ProximaNovaCond-Regular'" font-size="24.9541" letter-spacing="1">37,30</text>
  </g>
  <g>
    <rect x="87.285" y="105.032" fill="none" width="44.822" height="17.369"/>
    <text transform="matrix(1 0 0 1 87.2858 111.0349)"><tspan x="0" y="0" fill="#1A1A1A" font-family="'ProximaNovaCond-Regular'" font-size="9">Berlin-Mitte</tspan><tspan x="0" y="10.8" fill="#1A1A1A" font-family="'ProximaNovaCond-Regular'" font-size="9">Berlin Außen</tspan></text>
  </g>
  <g>
    <rect x="21.521" y="73.25" fill="none" width="22.411" height="10.333"/>
    <text transform="matrix(1 0 0 1 21.5218 79.2525)" fill="#1A1A1A" font-family="'ProximaNovaCond-Regular'" font-size="9">today</text>
  </g>
  <g>
    <rect x="21.521" y="34.657" fill="none" width="119.666" height="12.172"/>
    <text transform="matrix(1 0 0 1 21.5215 43.4655)" fill="#FFFFFF" font-family="'ProximaNovaCond-Regular'" font-size="13.2068">September total</text>
  </g>
  <g>
    <rect x="58.75" y="105.032" fill="none" width="22.411" height="17.369"/>
    <text transform="matrix(1 0 0 1 58.7502 111.0349)"><tspan x="0" y="0" fill="#1A1A1A" font-family="'ProximaNovaCond-Regular'" font-size="9">13:44</tspan><tspan x="0" y="10.8" fill="#1A1A1A" font-family="'ProximaNovaCond-Regular'" font-size="9">13:41</tspan></text>
  </g>
  <path fill="#A3B239" d="M169.116,105.648H145.29c-0.552,0-1,0.448-1,1v14.138c0,0.552,0.448,1,1,1h23.826c0.552,0,1-0.448,1-1
    v-14.138C170.116,106.095,169.668,105.648,169.116,105.648z"/>
  <g>
    <rect x="148.21" y="110.181" fill="none" width="18.441" height="6.961"/>
    <text transform="matrix(1 0 0 1 148.2091 116.4327)" fill="#FFFFFF" font-family="'ProximaNovaCond-Regular'" font-size="9.3732">good</text>
  </g>
  <g>
    <rect x="18.873" y="105.915" fill="none" width="29.524" height="19.385"/>
    
      <text transform="matrix(1 0 0 1 21.2451 120.8441)" fill="#1A1A1A" font-family="'ProximaNovaCond-Regular'" font-size="22.3842" letter-spacing="1">U6</text>
  </g>
  <path fill="#F8F8F8" d="M246.267,291.956H12.933c-0.552,0-1,0.448-1,1v41.242c0,0.552,0.448,1,1,1h233.333c0.552,0,1-0.448,1-1
    v-41.242C247.267,292.403,246.819,291.956,246.267,291.956z"/>
  <g>
    <rect x="181.42" y="306.204" fill="none" width="55.531" height="17.276"/>
    <text transform="matrix(1 0 0 1 182.2001 322.097)"><tspan x="0" y="0" fill="#1A1A1A" font-family="'ProximaNovaCond-Regular'" font-size="22.3842" letter-spacing="1">3,30</tspan><tspan x="41.881" y="0" fill="#1A1A1A" font-family="'MyriadPro-Regular'" font-size="22.3842" letter-spacing="1">Ξ</tspan></text>
  </g>
  <g>
    <rect x="87.285" y="305.032" fill="none" width="50.595" height="17.369"/>
    <text transform="matrix(1 0 0 1 87.2849 311.0349)"><tspan x="0" y="0" fill="#1A1A1A" font-family="'ProximaNovaCond-Regular'" font-size="9">Kochstraße</tspan><tspan x="0" y="10.8" fill="#1A1A1A" font-family="'ProximaNovaCond-Regular'" font-size="9">Checkpoint...</tspan></text>
  </g>
  <g>
    <rect x="58.75" y="305.032" fill="none" width="22.411" height="17.369"/>
    <text transform="matrix(1 0 0 1 58.7502 311.0349)"><tspan x="0" y="0" fill="#1A1A1A" font-family="'ProximaNovaCond-Regular'" font-size="9">18:12</tspan><tspan x="0" y="10.8" fill="#1A1A1A" font-family="'ProximaNovaCond-Regular'" font-size="9">18:34</tspan></text>
  </g>
  <path fill="#FBB03B" d="M169.116,305.648H145.29c-0.552,0-1,0.448-1,1v14.138c0,0.552,0.448,1,1,1h23.826c0.552,0,1-0.448,1-1
    v-14.138C170.116,306.095,169.668,305.648,169.116,305.648z"/>
  <g>
    <rect x="148.21" y="310.181" fill="none" width="18.441" height="6.961"/>
    <text transform="matrix(1 0 0 1 148.2091 316.4327)" fill="#FFFFFF" font-family="'ProximaNovaCond-Regular'" font-size="9.3732">norm</text>
  </g>
  <g>
    <rect x="18.873" y="305.915" fill="none" width="29.524" height="19.385"/>
    
      <text transform="matrix(1 0 0 1 21.2451 320.8441)" fill="#1A1A1A" font-family="'ProximaNovaCond-Regular'" font-size="22.3842" letter-spacing="1">U6</text>
  </g>
  <path fill="#F8F8F8" d="M246.267,169.622H12.933c-0.552,0-1,0.448-1,1v41.242c0,0.552,0.448,1,1,1h233.333c0.552,0,1-0.448,1-1
    v-41.242C247.267,170.07,246.819,169.622,246.267,169.622z"/>
  <g>
    <rect x="181.42" y="183.871" fill="none" width="55.531" height="17.276"/>
    <text transform="matrix(1 0 0 1 183.8339 199.763)"><tspan x="0" y="0" fill="#1A1A1A" font-family="'ProximaNovaCond-Regular'" font-size="22.3842" letter-spacing="1">1,80</tspan><tspan x="38.612" y="0" fill="#1A1A1A" font-family="'MyriadPro-Regular'" font-size="22.3842" letter-spacing="1">Ξ</tspan></text>
  </g>
  <g>
    <rect x="87.285" y="182.699" fill="none" width="50.595" height="17.369"/>
    <text transform="matrix(1 0 0 1 87.2849 188.7016)"><tspan x="0" y="0" fill="#1A1A1A" font-family="'ProximaNovaCond-Regular'" font-size="9">Berlin-Mitte</tspan><tspan x="0" y="10.8" fill="#1A1A1A" font-family="'ProximaNovaCond-Regular'" font-size="9">Berlin Außen</tspan></text>
  </g>
  <g>
    <rect x="21.521" y="149.916" fill="none" width="198.077" height="10.333"/>
    <text transform="matrix(1 0 0 1 21.5218 155.9192)" fill="#1A1A1A" font-family="'ProximaNovaCond-Regular'" font-size="9">yesterday</text>
  </g>
  <g>
    <rect x="21.521" y="274.017" fill="none" width="198.077" height="10.333"/>
    <text transform="matrix(1 0 0 1 21.5218 280.0198)" fill="#1A1A1A" font-family="'ProximaNovaCond-Regular'" font-size="9">7 days</text>
  </g>
  <g>
    <rect x="58.75" y="182.699" fill="none" width="22.411" height="17.369"/>
    <text transform="matrix(1 0 0 1 58.7502 188.7016)"><tspan x="0" y="0" fill="#1A1A1A" font-family="'ProximaNovaCond-Regular'" font-size="9">16:26</tspan><tspan x="0" y="10.8" fill="#1A1A1A" font-family="'ProximaNovaCond-Regular'" font-size="9">16:41</tspan></text>
  </g>
  <path fill="#39B54A" d="M169.116,183.314H145.29c-0.552,0-1,0.448-1,1v14.138c0,0.552,0.448,1,1,1h23.826c0.552,0,1-0.448,1-1
    v-14.138C170.116,183.762,169.668,183.314,169.116,183.314z"/>
  <g>
    <rect x="149.293" y="187.847" fill="none" width="18.441" height="6.961"/>
    <text transform="matrix(1 0 0 1 149.2925 194.0994)" fill="#FFFFFF" font-family="'ProximaNovaCond-Regular'" font-size="9.3732">best</text>
  </g>
  <g>
    <rect x="18.873" y="183.582" fill="none" width="29.524" height="19.385"/>
    
      <text transform="matrix(1 0 0 1 21.3115 198.5101)" fill="#1A1A1A" font-family="'ProximaNovaCond-Regular'" font-size="22.3842" letter-spacing="1">U8</text>
  </g>
  <path fill="#F8F8F8" d="M246.267,218.289H12.933c-0.552,0-1,0.448-1,1v41.242c0,0.552,0.448,1,1,1h233.333c0.552,0,1-0.448,1-1
    v-41.242C247.267,218.737,246.819,218.289,246.267,218.289z"/>
  <g>
    <rect x="181.42" y="232.537" fill="none" width="55.531" height="17.276"/>
    <text transform="matrix(1 0 0 1 182.3115 248.4301)"><tspan x="0" y="0" fill="#1A1A1A" font-family="'ProximaNovaCond-Regular'" font-size="22.3842" letter-spacing="1">0,70</tspan><tspan x="41.656" y="0" fill="#1A1A1A" font-family="'MyriadPro-Regular'" font-size="22.3842" letter-spacing="1">Ξ</tspan></text>
  </g>
  <g>
    <rect x="87.285" y="231.365" fill="none" width="50.822" height="17.369"/>
    <text transform="matrix(1 0 0 1 87.2849 237.3683)"><tspan x="0" y="0" fill="#1A1A1A" font-family="'ProximaNovaCond-Regular'" font-size="9">Alexanderpla..</tspan><tspan x="0" y="10.8" fill="#1A1A1A" font-family="'ProximaNovaCond-Regular'" font-size="9">Potsdam HbF</tspan></text>
  </g>
  <g>
    <rect x="58.75" y="231.365" fill="none" width="22.411" height="17.369"/>
    <text transform="matrix(1 0 0 1 58.7502 237.3683)"><tspan x="0" y="0" fill="#1A1A1A" font-family="'ProximaNovaCond-Regular'" font-size="9">13:41</tspan><tspan x="0" y="10.8" fill="#1A1A1A" font-family="'ProximaNovaCond-Regular'" font-size="9">13:44</tspan></text>
  </g>
  <path fill="#39B54A" d="M169.116,231.981H145.29c-0.552,0-1,0.448-1,1v14.138c0,0.552,0.448,1,1,1h23.826c0.552,0,1-0.448,1-1
    v-14.138C170.116,232.429,169.668,231.981,169.116,231.981z"/>
  <g>
    <rect x="149.293" y="236.514" fill="none" width="18.441" height="6.961"/>
    <text transform="matrix(1 0 0 1 149.2925 242.7661)" fill="#FFFFFF" font-family="'ProximaNovaCond-Regular'" font-size="9.3732">best</text>
  </g>
  <g>
    <g>
      <defs>
        <polygon id="SVGID_1_" points="43.236,230.799 23.8,250.236 37.698,264.134 58.383,243.449        "/>
      </defs>
      <clipPath id="SVGID_2_">
        <use xlink:href="#SVGID_1_"  overflow="visible"/>
      </clipPath>
      <g clip-path="url(#SVGID_2_)">
        <rect x="28.72" y="238.505" fill="none" width="19.606" height="12.873"/>
        
          <text transform="matrix(1 0 0 1 31.0312 248.4192)" fill="#1A1A1A" font-family="'ProximaNovaCond-Regular'" font-size="14.8645">S2</text>
      </g>
    </g>
    <g>
      <defs>
        <polygon id="SVGID_3_" points="43.236,230.799 23.8,250.236 10.11,236.547 30.795,215.862         "/>
      </defs>
      <clipPath id="SVGID_4_">
        <use xlink:href="#SVGID_3_"  overflow="visible"/>
      </clipPath>
      <g clip-path="url(#SVGID_4_)">
        <rect x="20.023" y="229.808" fill="none" width="19.606" height="12.873"/>
        
          <text transform="matrix(1 0 0 1 21.8203 239.722)" fill="#1A1A1A" font-family="'ProximaNovaCond-Regular'" font-size="14.8645">U4</text>
      </g>
    </g>
    
      <line fill="none" stroke="#000000" stroke-width="0.75" stroke-miterlimit="10" x1="25.123" y1="248.912" x2="44.011" y2="230.025"/>
  </g>
  <path fill="#F8F8F8" d="M246.267,341.289H12.933c-0.552,0-1,0.448-1,1v41.242c0,0.552,0.448,1,1,1h233.333c0.552,0,1-0.448,1-1
    v-41.242C247.267,341.737,246.819,341.289,246.267,341.289z"/>
  <g>
    <rect x="181.42" y="355.537" fill="none" width="55.531" height="17.276"/>
    <text transform="matrix(1 0 0 1 182.5693 371.43)"><tspan x="0" y="0" fill="#1A1A1A" font-family="'ProximaNovaCond-Regular'" font-size="22.3842" letter-spacing="1">2,70</tspan><tspan x="41.142" y="0" fill="#1A1A1A" font-family="'MyriadPro-Regular'" font-size="22.3842" letter-spacing="1">Ξ</tspan></text>
  </g>
  <g>
    <rect x="87.285" y="354.365" fill="none" width="50.595" height="17.369"/>
    <text transform="matrix(1 0 0 1 87.2849 360.3683)"><tspan x="0" y="0" fill="#1A1A1A" font-family="'ProximaNovaCond-Regular'" font-size="9">Gesundbrun...</tspan><tspan x="0" y="10.8" fill="#1A1A1A" font-family="'ProximaNovaCond-Regular'" font-size="9">Südkreuz</tspan></text>
  </g>
  <g>
    <rect x="58.75" y="354.365" fill="none" width="22.411" height="17.369"/>
    <text transform="matrix(1 0 0 1 58.7502 360.3683)"><tspan x="0" y="0" fill="#1A1A1A" font-family="'ProximaNovaCond-Regular'" font-size="9">11:01</tspan><tspan x="0" y="10.8" fill="#1A1A1A" font-family="'ProximaNovaCond-Regular'" font-size="9">12:41</tspan></text>
  </g>
  <path fill="#39B54A" d="M169.116,354.981H145.29c-0.552,0-1,0.448-1,1v14.138c0,0.552,0.448,1,1,1h23.826c0.552,0,1-0.448,1-1
    v-14.138C170.116,355.429,169.668,354.981,169.116,354.981z"/>
  <g>
    <rect x="149.293" y="359.514" fill="none" width="18.441" height="6.961"/>
    <text transform="matrix(1 0 0 1 149.2925 365.7661)" fill="#FFFFFF" font-family="'ProximaNovaCond-Regular'" font-size="9.3732">best</text>
  </g>
  <g>
    <g>
      <defs>
        <polygon id="SVGID_5_" points="43.236,353.799 23.8,373.236 37.698,387.134 58.383,366.449        "/>
      </defs>
      <clipPath id="SVGID_6_">
        <use xlink:href="#SVGID_5_"  overflow="visible"/>
      </clipPath>
      <g clip-path="url(#SVGID_6_)">
        <rect x="29.62" y="362.405" fill="none" width="19.606" height="12.873"/>
        
          <text transform="matrix(1 0 0 1 31.2392 372.3187)" fill="#1A1A1A" font-family="'ProximaNovaCond-Regular'" font-size="14.8645">U8</text>
      </g>
    </g>
    <g>
      <defs>
        <polygon id="SVGID_7_" points="43.236,353.799 23.8,373.236 10.11,359.547 30.795,338.862         "/>
      </defs>
      <clipPath id="SVGID_8_">
        <use xlink:href="#SVGID_7_"  overflow="visible"/>
      </clipPath>
      <g clip-path="url(#SVGID_8_)">
        <rect x="20.923" y="353.708" fill="none" width="19.606" height="12.873"/>
        
          <text transform="matrix(1 0 0 1 22.6396 363.6224)" fill="#1A1A1A" font-family="'ProximaNovaCond-Regular'" font-size="14.8645">U3</text>
      </g>
    </g>
    
      <line fill="none" stroke="#000000" stroke-width="0.75" stroke-miterlimit="10" x1="25.123" y1="371.912" x2="44.011" y2="353.025"/>
  </g>
</g>
</svg>
