<!-- Generator: Adobe Illustrator 18.1.1, SVG Export Plug-In  -->
<svg version="1.1"
   xmlns="http://www.w3.org/2000/svg" xmlns:xlink="http://www.w3.org/1999/xlink" xmlns:a="http://ns.adobe.com/AdobeSVGViewerExtensions/3.0/"
   x="0px" y="0px" width="13.632px" height="13.632px" viewBox="0 0 13.632 13.632" enable-background="new 0 0 13.632 13.632"
   xml:space="preserve">
<defs>
</defs>
<g>
  
    <path fill="none" stroke="#000000" stroke-width="0.75" stroke-linecap="round" stroke-linejoin="round" stroke-miterlimit="10" d="
    M11.439,7.656h1.818v-1.68h-1.819c-0.117-0.486-0.308-1.221-0.562-1.637l1.286-1.286l-1.585-1.584L9.292,2.755
    c-0.415-0.253-1.15-0.444-1.635-0.561V0.375h-1.68v1.819C5.49,2.311,4.755,2.502,4.34,2.755L3.053,1.469L1.469,3.054L2.755,4.34
    C2.502,4.755,2.311,5.49,2.193,5.976H0.375v1.68h1.818c0.118,0.486,0.309,1.222,0.562,1.636l-1.286,1.286l1.585,1.584l1.286-1.287
    c0.415,0.254,1.151,0.445,1.637,0.563v1.818h1.68v-1.818c0.486-0.118,1.221-0.309,1.635-0.562l1.287,1.286l1.584-1.584
    l-1.286-1.286C11.13,8.878,11.321,8.142,11.439,7.656z"/>
  
    <circle fill="none" stroke="#000000" stroke-width="0.75" stroke-linecap="round" stroke-linejoin="round" stroke-miterlimit="10" cx="6.816" cy="6.816" r="2.52"/>
</g>
</svg>
